<?xml version="1.0" encoding="utf-8"?>
<!-- Generator: Adobe Illustrator 23.0.1, SVG Export Plug-In . SVG Version: 6.00 Build 0)  -->
<svg version="1.1"
	 id="svg2" xmlns:cc="http://creativecommons.org/ns#" xmlns:dc="http://purl.org/dc/elements/1.1/" xmlns:inkscape="http://www.inkscape.org/namespaces/inkscape" xmlns:rdf="http://www.w3.org/1999/02/22-rdf-syntax-ns#" xmlns:sodipodi="http://sodipodi.sourceforge.net/DTD/sodipodi-0.dtd" xmlns:svg="http://www.w3.org/2000/svg"
	 xmlns="http://www.w3.org/2000/svg" xmlns:xlink="http://www.w3.org/1999/xlink" x="0px" y="0px" viewBox="0 0 289.3 229"
	 style="enable-background:new 0 0 289.3 229;" xml:space="preserve">
<style type="text/css">
	.st0{filter:url(#filter3277);}
</style>
<filter  color-interpolation-filters="sRGB" height="1.677884" id="filter3277" width="1.1458118" x="-0.072905906" y="-0.33894199">
	<feGaussianBlur  id="feGaussianBlur3279" inkscape:collect="always" stdDeviation="5.6648677"></feGaussianBlur>
</filter>
<sodipodi:namedview  bordercolor="#666666" borderopacity="1" fit-margin-bottom="0" fit-margin-left="0" fit-margin-right="0" fit-margin-top="0" gridtolerance="10" guidetolerance="10" id="namedview56" inkscape:current-layer="g3056" inkscape:cx="176.61602" inkscape:cy="124.37191" inkscape:pageopacity="0" inkscape:pageshadow="2" inkscape:window-height="808" inkscape:window-maximized="1" inkscape:window-width="1152" inkscape:window-x="-4" inkscape:window-y="-4" inkscape:zoom="1.0157512" objecttolerance="10" pagecolor="#ffffff" showgrid="false">
	</sodipodi:namedview>
<defs>
	
	
		<inkscape:perspective  id="perspective11" inkscape:persp3d-origin="372.04724 : 350.78739 : 1" inkscape:vp_x="0 : 526.18109 : 1" inkscape:vp_y="0 : 1000 : 0" inkscape:vp_z="744.09448 : 526.18109 : 1" sodipodi:type="inkscape:persp3d">
		</inkscape:perspective>
</defs>
<g transform="translate(-2.3652656,10.14319)">
	<g id="use4125" class="st0">
		<path id="SPQR_1_" inkscape:connector-curvature="0" d="M71.4,109.3c0-1-0.2-1.9-0.6-2.8c-0.4-0.9-0.9-1.7-1.5-2.5
			c-0.6-0.8-1.3-1.5-2.1-2.2c-0.8-0.7-1.6-1.4-2.4-2.1c-0.7-0.6-1.3-1.2-2-1.7c-0.7-0.6-1.2-1.1-1.8-1.7c-0.5-0.6-0.9-1.2-1.2-1.9
			c-0.3-0.6-0.5-1.3-0.5-2.1c0-0.7,0.1-1.3,0.4-1.9c0.3-0.6,0.6-1.1,1-1.5c0.4-0.4,0.9-0.7,1.5-1c0.6-0.2,1.2-0.3,1.8-0.3
			c0.7,0,1.3,0.1,1.9,0.3c0.6,0.2,1.1,0.5,1.5,0.9c0.4,0.4,0.8,0.9,1,1.4c0.2,0.6,0.4,1.2,0.4,1.9c0,0.2,0.1,0.3,0.3,0.4
			c0.2,0.1,0.4,0,0.5-0.1c0.4-0.5,0.6-1.2,0.7-2c0.1-0.8,0.1-1.6,0.1-2.3v-1.5c0-0.2-0.1-0.3-0.3-0.4c-1.3-0.4-2.7-0.5-4.2-0.5
			c-1.1,0-2.2,0.1-3.5,0.4c-1.3,0.3-2.4,0.7-3.5,1.3c-1.1,0.6-2,1.4-2.7,2.3c-0.7,0.9-1.1,2-1.1,3.3c0,0.9,0.2,1.7,0.6,2.5
			c0.4,0.8,0.9,1.6,1.5,2.5c0.6,0.8,1.3,1.6,2.1,2.4c0.8,0.8,1.6,1.6,2.4,2.3v0c0.7,0.7,1.4,1.4,2.1,2.1c0.7,0.7,1.3,1.4,1.9,2.1
			c0.5,0.7,1,1.4,1.3,2.1c0.3,0.7,0.5,1.4,0.5,2.1c0,0.7-0.2,1.4-0.5,2c-0.3,0.6-0.8,1.1-1.3,1.5c-0.5,0.4-1.2,0.7-1.8,1
			c-0.7,0.2-1.3,0.3-2,0.3c-0.7,0-1.4-0.1-2.1-0.3s-1.3-0.5-1.8-1c-0.5-0.4-0.9-0.9-1.2-1.5c-0.3-0.6-0.4-1.3-0.4-2l0-0.7
			c0-0.1,0-0.2-0.1-0.3c-0.1-0.1-0.2-0.1-0.3-0.1c-0.1,0-0.2,0-0.3,0.1c-0.1,0-0.2,0.1-0.2,0.2c-0.1,0.2-0.1,0.5-0.2,0.7
			c-0.1,0.3-0.1,0.6-0.2,0.9c-0.1,0.4-0.2,0.8-0.3,1.2c-0.1,0.4-0.1,0.8-0.1,1.3c0,0.7,0.2,1.3,0.5,1.8c0.3,0.5,0.8,0.9,1.3,1.2
			c0.5,0.3,1.1,0.5,1.8,0.6c0.6,0.1,1.3,0.2,1.8,0.2c1.2,0,2.5-0.2,3.8-0.6c1.3-0.4,2.5-1,3.6-1.8c1.1-0.8,2-1.7,2.7-2.8
			C71,111.9,71.4,110.6,71.4,109.3L71.4,109.3L71.4,109.3z M87.8,101.7c0-0.6-0.2-1.1-0.7-1.6c-0.5-0.5-1-0.8-1.7-0.8
			c-0.7,0-1.2,0.2-1.6,0.6c-0.4,0.4-0.6,0.9-0.6,1.5c0,0.5,0.2,1.1,0.5,1.6c0.3,0.5,0.8,0.8,1.5,0.8c0.3,0,0.6-0.1,0.9-0.2
			c0.3-0.1,0.6-0.3,0.8-0.5c0.2-0.2,0.4-0.4,0.6-0.7C87.7,102.3,87.8,102,87.8,101.7C87.8,101.7,87.8,101.7,87.8,101.7z M120.2,94
			c0-1.7-0.3-3.1-0.9-4c-0.6-1-1.4-1.7-2.4-2.2c-1-0.5-2.1-0.8-3.4-1c-1.3-0.1-2.5-0.2-3.8-0.2h-3.4c-0.4,0-0.8,0-1.3,0
			c-0.4,0-0.9,0-1.3,0c-0.5,0-0.9,0-1.4,0c-0.4,0-0.9,0-1.3,0h-0.9c-0.2,0-0.4,0.1-0.5,0.2c-0.1,0.1-0.1,0.2,0,0.4
			c0.1,0.3,0.4,0.5,0.7,0.6c0.3,0.1,0.6,0.1,1,0.2c0.2,0,0.4,0.1,0.6,0.1c0.2,0,0.4,0.1,0.5,0.3c0.2,0.1,0.3,0.3,0.4,0.6
			c0.1,0.3,0.1,0.6,0.1,1v23.4c0,0.7,0,1.3,0,1.7c0,0.4-0.1,0.8-0.3,1c-0.2,0.3-0.4,0.4-0.8,0.6c-0.3,0.1-0.8,0.3-1.4,0.4
			c-0.3,0.1-0.4,0.2-0.4,0.4c0,0.2,0.2,0.3,0.4,0.4c1.7,0.1,3.4,0.1,5.1,0.1c1.7,0,3.4,0,5.1,0c0.2,0,0.3,0,0.4-0.1
			c0.1-0.1,0.1-0.2,0-0.4c-0.1-0.3-0.3-0.5-0.6-0.5c-0.3,0-0.6-0.1-1-0.1c-0.2,0-0.5-0.1-0.8-0.1c-0.3,0-0.5-0.1-0.6-0.3
			c-0.1-0.1-0.1-0.2-0.2-0.5c-0.1-0.3-0.2-0.6-0.2-1c-0.1-0.4-0.1-0.7-0.2-1c-0.1-0.3-0.1-0.5-0.1-0.7V88.8c0.4-0.1,0.8-0.3,1.3-0.4
			c0.4-0.1,0.9-0.2,1.4-0.2c1,0,1.9,0.2,2.6,0.7c0.8,0.5,1.4,1.1,1.9,1.8c0.5,0.7,0.9,1.6,1.2,2.5c0.3,0.9,0.4,1.8,0.4,2.8
			c0,2-0.6,3.6-1.7,4.8c-1.2,1.1-2.8,1.7-4.8,1.7c-0.1,0-0.3,0-0.4,0c-0.1,0-0.3,0-0.4,0c-0.1,0-0.3,0-0.3,0.1
			c-0.1,0.1-0.1,0.2-0.2,0.4c0,0.2,0,0.3,0,0.4c0,0.1,0.1,0.2,0.3,0.2c0.8,0.2,1.6,0.3,2.4,0.3c1.3,0,2.5-0.3,3.6-0.9
			c1.1-0.6,2.1-1.3,2.9-2.3c0.8-0.9,1.4-2,1.9-3.2C120,96.4,120.2,95.2,120.2,94L120.2,94L120.2,94z M136.6,101.7
			c0-0.6-0.2-1.1-0.7-1.6c-0.5-0.5-1-0.8-1.7-0.8c-0.7,0-1.2,0.2-1.6,0.6c-0.4,0.4-0.6,0.9-0.6,1.5c0,0.5,0.2,1.1,0.5,1.6
			c0.3,0.5,0.8,0.8,1.5,0.8c0.3,0,0.6-0.1,0.9-0.2c0.3-0.1,0.6-0.3,0.8-0.5c0.2-0.2,0.4-0.4,0.6-0.7
			C136.6,102.3,136.6,102,136.6,101.7L136.6,101.7L136.6,101.7z M208,122l-0.5-0.7c-1.4,0.6-2.8,1-4.2,1.3c-1.4,0.3-2.9,0.5-4.4,0.5
			c-2.1,0-4.2-0.3-6.3-0.8c-2.1-0.5-4.1-1.2-6.2-2c-2-0.8-4-1.8-6-2.9c-1.9-1.1-3.8-2.1-5.6-3.2c2.2-1.6,3.9-3.7,5-6.1
			c1.2-2.4,1.8-5,1.8-7.7c0-2.3-0.4-4.4-1.3-6.3c-0.9-1.9-2-3.5-3.5-4.9c-1.5-1.4-3.2-2.4-5.2-3.1c-2-0.7-4.1-1.1-6.3-1.1
			c-2.3,0-4.5,0.4-6.5,1.2c-2,0.8-3.8,2-5.3,3.4c-1.5,1.5-2.7,3.2-3.5,5.2c-0.9,2-1.3,4.1-1.3,6.5c0,2.4,0.4,4.6,1.2,6.6
			c0.8,2,1.9,3.7,3.3,5.2c1.4,1.4,3.1,2.6,5.2,3.4c2,0.8,4.2,1.2,6.7,1.2c0.6,0,1.3-0.1,1.8-0.2c0.6-0.1,1.2-0.3,1.7-0.5
			c0.5-0.1,0.9-0.3,1.3-0.4c0.4-0.1,0.8-0.2,1.1-0.2h0.2c0.6,0.2,1.2,0.5,1.8,0.8c0.6,0.3,1.2,0.6,1.8,1c0.3,0.2,0.7,0.4,1.1,0.6
			c0.4,0.2,0.8,0.4,1.1,0.5c1.5,0.7,3,1.4,4.6,2.1c1.6,0.7,3.2,1.3,4.9,1.9c1.6,0.5,3.3,1,5,1.3c1.7,0.3,3.4,0.5,5.1,0.5
			c2,0,4-0.3,5.9-0.8C204.5,123.8,206.3,123,208,122L208,122L208,122z M176.8,100.6c0,1.6-0.2,3.2-0.6,4.8c-0.4,1.5-1.1,2.9-1.9,4.2
			c-0.8,1.3-1.8,2.5-3,3.5c-1.2,1-2.6,1.8-4.1,2.3c-2-0.3-3.9-0.9-5.6-1.8c-1.7-1-3.2-2.2-4.4-3.7c-1.2-1.5-2.2-3.2-2.9-5
			c-0.7-1.9-1-3.8-1-5.9c0-1.8,0.3-3.4,0.9-4.9c0.6-1.5,1.4-2.7,2.4-3.7c1-1,2.3-1.8,3.8-2.4c1.5-0.6,3.1-0.8,4.8-0.8
			c1.9,0,3.5,0.4,5,1.1c1.5,0.7,2.7,1.7,3.7,3c1,1.2,1.8,2.7,2.3,4.3C176.5,97.1,176.8,98.8,176.8,100.6L176.8,100.6z M198.1,101.7
			c0-0.6-0.2-1.1-0.7-1.6c-0.5-0.5-1-0.8-1.7-0.8c-0.7,0-1.2,0.2-1.6,0.6c-0.4,0.4-0.6,0.9-0.6,1.5c0,0.5,0.2,1.1,0.5,1.6
			c0.3,0.5,0.8,0.8,1.5,0.8c0.3,0,0.6-0.1,0.9-0.2c0.3-0.1,0.6-0.3,0.8-0.5c0.2-0.2,0.4-0.4,0.6-0.7
			C198,102.3,198.1,102,198.1,101.7L198.1,101.7L198.1,101.7z M241.3,117.5l-0.3-0.7c-1.1,0.2-2.1,0-3.1-0.6c-1-0.5-2-1.3-3-2.2
			c-1-0.9-1.9-2-2.8-3.2c-0.9-1.2-1.8-2.3-2.6-3.5c-0.5-0.7-1-1.3-1.5-2c-0.5-0.7-1-1.2-1.4-1.7c0.6-0.6,1.2-1.2,1.8-1.9
			c0.6-0.7,1.1-1.5,1.5-2.3c0.4-0.8,0.8-1.6,1.1-2.5c0.3-0.9,0.4-1.7,0.4-2.6c0-0.2,0-0.4,0-0.6c0-0.2,0-0.4-0.1-0.5
			c-0.3-1.4-0.9-2.5-1.6-3.4c-0.7-0.9-1.5-1.5-2.5-2c-1-0.5-2-0.8-3.1-0.9c-1.1-0.2-2.3-0.2-3.5-0.2h-2.2c-0.3,0-0.5,0-0.7,0
			c-0.2,0-0.5,0-0.7,0c-0.4,0-0.9,0-1.3,0c-0.4,0-0.9,0-1.3,0h-2.8h-0.8c-0.2,0-0.3,0-0.4,0.1c-0.1,0.1-0.1,0.2,0,0.4
			c0.1,0.3,0.3,0.5,0.5,0.5c0.3,0.1,0.6,0.1,1,0.2c0.2,0,0.4,0.1,0.6,0.1c0.2,0,0.4,0.1,0.5,0.3c0.2,0.1,0.3,0.3,0.4,0.6
			c0.1,0.3,0.2,0.7,0.2,1.1v23.2c0,0.7,0,1.2,0,1.7c0,0.4-0.1,0.8-0.3,1c-0.2,0.3-0.4,0.4-0.7,0.6c-0.3,0.1-0.8,0.3-1.4,0.4
			c-0.3,0.1-0.4,0.2-0.4,0.4c0,0.2,0.2,0.3,0.4,0.4c1.7,0.1,3.4,0.1,5.1,0.1c1.7,0,3.4,0,5.1,0c0.2,0,0.4-0.1,0.5-0.2
			c0.1-0.1,0-0.3-0.1-0.4c-0.3-0.2-0.5-0.4-0.9-0.4c-0.3-0.1-0.6-0.1-0.9-0.1c-0.1,0-0.3-0.1-0.6-0.1c-0.2,0-0.4-0.1-0.6-0.1
			c-0.1-0.1-0.2-0.2-0.3-0.5c-0.1-0.3-0.2-0.6-0.3-1c-0.1-0.4-0.1-0.7-0.2-1.1s-0.1-0.6-0.1-0.7v-7.8c0.2,0,0.5,0,0.7,0
			c0.3,0,0.5,0,0.8,0c0.6,0,1.3,0.1,2,0.2c0.7,0.1,1.4,0.4,1.9,0.8c0.7,0.6,1.3,1.3,1.9,2.2c0.6,0.9,1.3,1.7,1.9,2.6
			c0.6,0.9,1.3,1.8,2,2.7c0.7,0.9,1.4,1.7,2.2,2.4c0.8,0.7,1.7,1.3,2.6,1.7c0.9,0.4,2,0.6,3.2,0.6c0.7,0,1.4-0.1,2.1-0.3
			C240,118.1,240.6,117.8,241.3,117.5L241.3,117.5L241.3,117.5z M226.7,96.5c0,0.5,0,1-0.1,1.6c-0.1,0.5-0.2,1-0.4,1.6
			c-0.2,0.5-0.4,1-0.6,1.4c-0.3,0.4-0.6,0.8-1,1.1c-0.4,0.3-0.9,0.5-1.5,0.5c-0.6,0.1-1.2,0.1-1.6,0.1c-1.2,0-2.4-0.1-3.5-0.3V88.7
			c0.8-0.3,1.5-0.4,2.3-0.4c1.1,0,2,0.2,2.8,0.7c0.8,0.5,1.5,1.1,2,1.9c0.5,0.8,0.9,1.6,1.2,2.6C226.6,94.5,226.7,95.5,226.7,96.5
			L226.7,96.5L226.7,96.5z"/>
	</g>
	<g id="use4123" class="st0">
		<path inkscape:connector-curvature="0" d="M71.4,109.3c0-1-0.2-1.9-0.6-2.8c-0.4-0.9-0.9-1.7-1.5-2.5c-0.6-0.8-1.3-1.5-2.1-2.2
			c-0.8-0.7-1.6-1.4-2.4-2.1c-0.7-0.6-1.3-1.2-2-1.7c-0.7-0.6-1.2-1.1-1.8-1.7c-0.5-0.6-0.9-1.2-1.2-1.9c-0.3-0.6-0.5-1.3-0.5-2.1
			c0-0.7,0.1-1.3,0.4-1.9c0.3-0.6,0.6-1.1,1-1.5c0.4-0.4,0.9-0.7,1.5-1c0.6-0.2,1.2-0.3,1.8-0.3c0.7,0,1.3,0.1,1.9,0.3
			c0.6,0.2,1.1,0.5,1.5,0.9c0.4,0.4,0.8,0.9,1,1.4c0.2,0.6,0.4,1.2,0.4,1.9c0,0.2,0.1,0.3,0.3,0.4c0.2,0.1,0.4,0,0.5-0.1
			c0.4-0.5,0.6-1.2,0.7-2c0.1-0.8,0.1-1.6,0.1-2.3v-1.5c0-0.2-0.1-0.3-0.3-0.4c-1.3-0.4-2.7-0.5-4.2-0.5c-1.1,0-2.2,0.1-3.5,0.4
			c-1.3,0.3-2.4,0.7-3.5,1.3c-1.1,0.6-2,1.4-2.7,2.3c-0.7,0.9-1.1,2-1.1,3.3c0,0.9,0.2,1.7,0.6,2.5c0.4,0.8,0.9,1.6,1.5,2.5
			c0.6,0.8,1.3,1.6,2.1,2.4c0.8,0.8,1.6,1.6,2.4,2.3v0c0.7,0.7,1.4,1.4,2.1,2.1c0.7,0.7,1.3,1.4,1.9,2.1c0.5,0.7,1,1.4,1.3,2.1
			c0.3,0.7,0.5,1.4,0.5,2.1c0,0.7-0.2,1.4-0.5,2c-0.3,0.6-0.8,1.1-1.3,1.5c-0.5,0.4-1.2,0.7-1.8,1c-0.7,0.2-1.3,0.3-2,0.3
			c-0.7,0-1.4-0.1-2.1-0.3s-1.3-0.5-1.8-1c-0.5-0.4-0.9-0.9-1.2-1.5c-0.3-0.6-0.4-1.3-0.4-2l0-0.7c0-0.1,0-0.2-0.1-0.3
			c-0.1-0.1-0.2-0.1-0.3-0.1c-0.1,0-0.2,0-0.3,0.1c-0.1,0-0.2,0.1-0.2,0.2c-0.1,0.2-0.1,0.5-0.2,0.7c-0.1,0.3-0.1,0.6-0.2,0.9
			c-0.1,0.4-0.2,0.8-0.3,1.2c-0.1,0.4-0.1,0.8-0.1,1.3c0,0.7,0.2,1.3,0.5,1.8c0.3,0.5,0.8,0.9,1.3,1.2c0.5,0.3,1.1,0.5,1.8,0.6
			c0.6,0.1,1.3,0.2,1.8,0.2c1.2,0,2.5-0.2,3.8-0.6c1.3-0.4,2.5-1,3.6-1.8c1.1-0.8,2-1.7,2.7-2.8C71,111.9,71.4,110.6,71.4,109.3
			L71.4,109.3L71.4,109.3z M87.8,101.7c0-0.6-0.2-1.1-0.7-1.6c-0.5-0.5-1-0.8-1.7-0.8c-0.7,0-1.2,0.2-1.6,0.6
			c-0.4,0.4-0.6,0.9-0.6,1.5c0,0.5,0.2,1.1,0.5,1.6c0.3,0.5,0.8,0.8,1.5,0.8c0.3,0,0.6-0.1,0.9-0.2c0.3-0.1,0.6-0.3,0.8-0.5
			c0.2-0.2,0.4-0.4,0.6-0.7C87.7,102.3,87.8,102,87.8,101.7C87.8,101.7,87.8,101.7,87.8,101.7z M120.2,94c0-1.7-0.3-3.1-0.9-4
			c-0.6-1-1.4-1.7-2.4-2.2c-1-0.5-2.1-0.8-3.4-1c-1.3-0.1-2.5-0.2-3.8-0.2h-3.4c-0.4,0-0.8,0-1.3,0c-0.4,0-0.9,0-1.3,0
			c-0.5,0-0.9,0-1.4,0c-0.4,0-0.9,0-1.3,0h-0.9c-0.2,0-0.4,0.1-0.5,0.2c-0.1,0.1-0.1,0.2,0,0.4c0.1,0.3,0.4,0.5,0.7,0.6
			c0.3,0.1,0.6,0.1,1,0.2c0.2,0,0.4,0.1,0.6,0.1c0.2,0,0.4,0.1,0.5,0.3c0.2,0.1,0.3,0.3,0.4,0.6c0.1,0.3,0.1,0.6,0.1,1v23.4
			c0,0.7,0,1.3,0,1.7c0,0.4-0.1,0.8-0.3,1c-0.2,0.3-0.4,0.4-0.8,0.6c-0.3,0.1-0.8,0.3-1.4,0.4c-0.3,0.1-0.4,0.2-0.4,0.4
			c0,0.2,0.2,0.3,0.4,0.4c1.7,0.1,3.4,0.1,5.1,0.1c1.7,0,3.4,0,5.1,0c0.2,0,0.3,0,0.4-0.1c0.1-0.1,0.1-0.2,0-0.4
			c-0.1-0.3-0.3-0.5-0.6-0.5c-0.3,0-0.6-0.1-1-0.1c-0.2,0-0.5-0.1-0.8-0.1c-0.3,0-0.5-0.1-0.6-0.3c-0.1-0.1-0.1-0.2-0.2-0.5
			c-0.1-0.3-0.2-0.6-0.2-1c-0.1-0.4-0.1-0.7-0.2-1c-0.1-0.3-0.1-0.5-0.1-0.7V88.8c0.4-0.1,0.8-0.3,1.3-0.4c0.4-0.1,0.9-0.2,1.4-0.2
			c1,0,1.9,0.2,2.6,0.7c0.8,0.5,1.4,1.1,1.9,1.8c0.5,0.7,0.9,1.6,1.2,2.5c0.3,0.9,0.4,1.8,0.4,2.8c0,2-0.6,3.6-1.7,4.8
			c-1.2,1.1-2.8,1.7-4.8,1.7c-0.1,0-0.3,0-0.4,0c-0.1,0-0.3,0-0.4,0c-0.1,0-0.3,0-0.3,0.1c-0.1,0.1-0.1,0.2-0.2,0.4
			c0,0.2,0,0.3,0,0.4c0,0.1,0.1,0.2,0.3,0.2c0.8,0.2,1.6,0.3,2.4,0.3c1.3,0,2.5-0.3,3.6-0.9c1.1-0.6,2.1-1.3,2.9-2.3
			c0.8-0.9,1.4-2,1.9-3.2C120,96.4,120.2,95.2,120.2,94L120.2,94L120.2,94z M136.6,101.7c0-0.6-0.2-1.1-0.7-1.6
			c-0.5-0.5-1-0.8-1.7-0.8c-0.7,0-1.2,0.2-1.6,0.6c-0.4,0.4-0.6,0.9-0.6,1.5c0,0.5,0.2,1.1,0.5,1.6c0.3,0.5,0.8,0.8,1.5,0.8
			c0.3,0,0.6-0.1,0.9-0.2c0.3-0.1,0.6-0.3,0.8-0.5c0.2-0.2,0.4-0.4,0.6-0.7C136.6,102.3,136.6,102,136.6,101.7L136.6,101.7
			L136.6,101.7z M208,122l-0.5-0.7c-1.4,0.6-2.8,1-4.2,1.3c-1.4,0.3-2.9,0.5-4.4,0.5c-2.1,0-4.2-0.3-6.3-0.8c-2.1-0.5-4.1-1.2-6.2-2
			c-2-0.8-4-1.8-6-2.9c-1.9-1.1-3.8-2.1-5.6-3.2c2.2-1.6,3.9-3.7,5-6.1c1.2-2.4,1.8-5,1.8-7.7c0-2.3-0.4-4.4-1.3-6.3
			c-0.9-1.9-2-3.5-3.5-4.9c-1.5-1.4-3.2-2.4-5.2-3.1c-2-0.7-4.1-1.1-6.3-1.1c-2.3,0-4.5,0.4-6.5,1.2c-2,0.8-3.8,2-5.3,3.4
			c-1.5,1.5-2.7,3.2-3.5,5.2c-0.9,2-1.3,4.1-1.3,6.5c0,2.4,0.4,4.6,1.2,6.6c0.8,2,1.9,3.7,3.3,5.2c1.4,1.4,3.1,2.6,5.2,3.4
			c2,0.8,4.2,1.2,6.7,1.2c0.6,0,1.3-0.1,1.8-0.2c0.6-0.1,1.2-0.3,1.7-0.5c0.5-0.1,0.9-0.3,1.3-0.4c0.4-0.1,0.8-0.2,1.1-0.2h0.2
			c0.6,0.2,1.2,0.5,1.8,0.8c0.6,0.3,1.2,0.6,1.8,1c0.3,0.2,0.7,0.4,1.1,0.6c0.4,0.2,0.8,0.4,1.1,0.5c1.5,0.7,3,1.4,4.6,2.1
			c1.6,0.7,3.2,1.3,4.9,1.9c1.6,0.5,3.3,1,5,1.3c1.7,0.3,3.4,0.5,5.1,0.5c2,0,4-0.3,5.9-0.8C204.5,123.8,206.3,123,208,122L208,122
			L208,122z M176.8,100.6c0,1.6-0.2,3.2-0.6,4.8c-0.4,1.5-1.1,2.9-1.9,4.2c-0.8,1.3-1.8,2.5-3,3.5c-1.2,1-2.6,1.8-4.1,2.3
			c-2-0.3-3.9-0.9-5.6-1.8c-1.7-1-3.2-2.2-4.4-3.7c-1.2-1.5-2.2-3.2-2.9-5c-0.7-1.9-1-3.8-1-5.9c0-1.8,0.3-3.4,0.9-4.9
			c0.6-1.5,1.4-2.7,2.4-3.7c1-1,2.3-1.8,3.8-2.4c1.5-0.6,3.1-0.8,4.8-0.8c1.9,0,3.5,0.4,5,1.1c1.5,0.7,2.7,1.7,3.7,3
			c1,1.2,1.8,2.7,2.3,4.3C176.5,97.1,176.8,98.8,176.8,100.6L176.8,100.6z M198.1,101.7c0-0.6-0.2-1.1-0.7-1.6
			c-0.5-0.5-1-0.8-1.7-0.8c-0.7,0-1.2,0.2-1.6,0.6c-0.4,0.4-0.6,0.9-0.6,1.5c0,0.5,0.2,1.1,0.5,1.6c0.3,0.5,0.8,0.8,1.5,0.8
			c0.3,0,0.6-0.1,0.9-0.2c0.3-0.1,0.6-0.3,0.8-0.5c0.2-0.2,0.4-0.4,0.6-0.7C198,102.3,198.1,102,198.1,101.7L198.1,101.7
			L198.1,101.7z M241.3,117.5l-0.3-0.7c-1.1,0.2-2.1,0-3.1-0.6c-1-0.5-2-1.3-3-2.2c-1-0.9-1.9-2-2.8-3.2c-0.9-1.2-1.8-2.3-2.6-3.5
			c-0.5-0.7-1-1.3-1.5-2c-0.5-0.7-1-1.2-1.4-1.7c0.6-0.6,1.2-1.2,1.8-1.9c0.6-0.7,1.1-1.5,1.5-2.3c0.4-0.8,0.8-1.6,1.1-2.5
			c0.3-0.9,0.4-1.7,0.4-2.6c0-0.2,0-0.4,0-0.6c0-0.2,0-0.4-0.1-0.5c-0.3-1.4-0.9-2.5-1.6-3.4c-0.7-0.9-1.5-1.5-2.5-2
			c-1-0.5-2-0.8-3.1-0.9c-1.1-0.2-2.3-0.2-3.5-0.2h-2.2c-0.3,0-0.5,0-0.7,0c-0.2,0-0.5,0-0.7,0c-0.4,0-0.9,0-1.3,0
			c-0.4,0-0.9,0-1.3,0h-2.8h-0.8c-0.2,0-0.3,0-0.4,0.1c-0.1,0.1-0.1,0.2,0,0.4c0.1,0.3,0.3,0.5,0.5,0.5c0.3,0.1,0.6,0.1,1,0.2
			c0.2,0,0.4,0.1,0.6,0.1c0.2,0,0.4,0.1,0.5,0.3c0.2,0.1,0.3,0.3,0.4,0.6c0.1,0.3,0.2,0.7,0.2,1.1v23.2c0,0.7,0,1.2,0,1.7
			c0,0.4-0.1,0.8-0.3,1c-0.2,0.3-0.4,0.4-0.7,0.6c-0.3,0.1-0.8,0.3-1.4,0.4c-0.3,0.1-0.4,0.2-0.4,0.4c0,0.2,0.2,0.3,0.4,0.4
			c1.7,0.1,3.4,0.1,5.1,0.1c1.7,0,3.4,0,5.1,0c0.2,0,0.4-0.1,0.5-0.2c0.1-0.1,0-0.3-0.1-0.4c-0.3-0.2-0.5-0.4-0.9-0.4
			c-0.3-0.1-0.6-0.1-0.9-0.1c-0.1,0-0.3-0.1-0.6-0.1c-0.2,0-0.4-0.1-0.6-0.1c-0.1-0.1-0.2-0.2-0.3-0.5c-0.1-0.3-0.2-0.6-0.3-1
			c-0.1-0.4-0.1-0.7-0.2-1.1s-0.1-0.6-0.1-0.7v-7.8c0.2,0,0.5,0,0.7,0c0.3,0,0.5,0,0.8,0c0.6,0,1.3,0.1,2,0.2
			c0.7,0.1,1.4,0.4,1.9,0.8c0.7,0.6,1.3,1.3,1.9,2.2c0.6,0.9,1.3,1.7,1.9,2.6c0.6,0.9,1.3,1.8,2,2.7c0.7,0.9,1.4,1.7,2.2,2.4
			c0.8,0.7,1.7,1.3,2.6,1.7c0.9,0.4,2,0.6,3.2,0.6c0.7,0,1.4-0.1,2.1-0.3C240,118.1,240.6,117.8,241.3,117.5L241.3,117.5
			L241.3,117.5z M226.7,96.5c0,0.5,0,1-0.1,1.6c-0.1,0.5-0.2,1-0.4,1.6c-0.2,0.5-0.4,1-0.6,1.4c-0.3,0.4-0.6,0.8-1,1.1
			c-0.4,0.3-0.9,0.5-1.5,0.5c-0.6,0.1-1.2,0.1-1.6,0.1c-1.2,0-2.4-0.1-3.5-0.3V88.7c0.8-0.3,1.5-0.4,2.3-0.4c1.1,0,2,0.2,2.8,0.7
			c0.8,0.5,1.5,1.1,2,1.9c0.5,0.8,0.9,1.6,1.2,2.6C226.6,94.5,226.7,95.5,226.7,96.5L226.7,96.5L226.7,96.5z"/>
	</g>
	<g id="Shadow" class="st0">
		<path inkscape:connector-curvature="0" d="M71.4,109.3c0-1-0.2-1.9-0.6-2.8c-0.4-0.9-0.9-1.7-1.5-2.5c-0.6-0.8-1.3-1.5-2.1-2.2
			c-0.8-0.7-1.6-1.4-2.4-2.1c-0.7-0.6-1.3-1.2-2-1.7c-0.7-0.6-1.2-1.1-1.8-1.7c-0.5-0.6-0.9-1.2-1.2-1.9c-0.3-0.6-0.5-1.3-0.5-2.1
			c0-0.7,0.1-1.3,0.4-1.9c0.3-0.6,0.6-1.1,1-1.5c0.4-0.4,0.9-0.7,1.5-1c0.6-0.2,1.2-0.3,1.8-0.3c0.7,0,1.3,0.1,1.9,0.3
			c0.6,0.2,1.1,0.5,1.5,0.9c0.4,0.4,0.8,0.9,1,1.4c0.2,0.6,0.4,1.2,0.4,1.9c0,0.2,0.1,0.3,0.3,0.4c0.2,0.1,0.4,0,0.5-0.1
			c0.4-0.5,0.6-1.2,0.7-2c0.1-0.8,0.1-1.6,0.1-2.3v-1.5c0-0.2-0.1-0.3-0.3-0.4c-1.3-0.4-2.7-0.5-4.2-0.5c-1.1,0-2.2,0.1-3.5,0.4
			c-1.3,0.3-2.4,0.7-3.5,1.3c-1.1,0.6-2,1.4-2.7,2.3c-0.7,0.9-1.1,2-1.1,3.3c0,0.9,0.2,1.7,0.6,2.5c0.4,0.8,0.9,1.6,1.5,2.5
			c0.6,0.8,1.3,1.6,2.1,2.4c0.8,0.8,1.6,1.6,2.4,2.3v0c0.7,0.7,1.4,1.4,2.1,2.1c0.7,0.7,1.3,1.4,1.9,2.1c0.5,0.7,1,1.4,1.3,2.1
			c0.3,0.7,0.5,1.4,0.5,2.1c0,0.7-0.2,1.4-0.5,2c-0.3,0.6-0.8,1.1-1.3,1.5c-0.5,0.4-1.2,0.7-1.8,1c-0.7,0.2-1.3,0.3-2,0.3
			c-0.7,0-1.4-0.1-2.1-0.3s-1.3-0.5-1.8-1c-0.5-0.4-0.9-0.9-1.2-1.5c-0.3-0.6-0.4-1.3-0.4-2l0-0.7c0-0.1,0-0.2-0.1-0.3
			c-0.1-0.1-0.2-0.1-0.3-0.1c-0.1,0-0.2,0-0.3,0.1c-0.1,0-0.2,0.1-0.2,0.2c-0.1,0.2-0.1,0.5-0.2,0.7c-0.1,0.3-0.1,0.6-0.2,0.9
			c-0.1,0.4-0.2,0.8-0.3,1.2c-0.1,0.4-0.1,0.8-0.1,1.3c0,0.7,0.2,1.3,0.5,1.8c0.3,0.5,0.8,0.9,1.3,1.2c0.5,0.3,1.1,0.5,1.8,0.6
			c0.6,0.1,1.3,0.2,1.8,0.2c1.2,0,2.5-0.2,3.8-0.6c1.3-0.4,2.5-1,3.6-1.8c1.1-0.8,2-1.7,2.7-2.8C71,111.9,71.4,110.6,71.4,109.3
			L71.4,109.3L71.4,109.3z M87.8,101.7c0-0.6-0.2-1.1-0.7-1.6c-0.5-0.5-1-0.8-1.7-0.8c-0.7,0-1.2,0.2-1.6,0.6
			c-0.4,0.4-0.6,0.9-0.6,1.5c0,0.5,0.2,1.1,0.5,1.6c0.3,0.5,0.8,0.8,1.5,0.8c0.3,0,0.6-0.1,0.9-0.2c0.3-0.1,0.6-0.3,0.8-0.5
			c0.2-0.2,0.4-0.4,0.6-0.7C87.7,102.3,87.8,102,87.8,101.7C87.8,101.7,87.8,101.7,87.8,101.7z M120.2,94c0-1.7-0.3-3.1-0.9-4
			c-0.6-1-1.4-1.7-2.4-2.2c-1-0.5-2.1-0.8-3.4-1c-1.3-0.1-2.5-0.2-3.8-0.2h-3.4c-0.4,0-0.8,0-1.3,0c-0.4,0-0.9,0-1.3,0
			c-0.5,0-0.9,0-1.4,0c-0.4,0-0.9,0-1.3,0h-0.9c-0.2,0-0.4,0.1-0.5,0.2c-0.1,0.1-0.1,0.2,0,0.4c0.1,0.3,0.4,0.5,0.7,0.6
			c0.3,0.1,0.6,0.1,1,0.2c0.2,0,0.4,0.1,0.6,0.1c0.2,0,0.4,0.1,0.5,0.3c0.2,0.1,0.3,0.3,0.4,0.6c0.1,0.3,0.1,0.6,0.1,1v23.4
			c0,0.7,0,1.3,0,1.7c0,0.4-0.1,0.8-0.3,1c-0.2,0.3-0.4,0.4-0.8,0.6c-0.3,0.1-0.8,0.3-1.4,0.4c-0.3,0.1-0.4,0.2-0.4,0.4
			c0,0.2,0.2,0.3,0.4,0.4c1.7,0.1,3.4,0.1,5.1,0.1c1.7,0,3.4,0,5.1,0c0.2,0,0.3,0,0.4-0.1c0.1-0.1,0.1-0.2,0-0.4
			c-0.1-0.3-0.3-0.5-0.6-0.5c-0.3,0-0.6-0.1-1-0.1c-0.2,0-0.5-0.1-0.8-0.1c-0.3,0-0.5-0.1-0.6-0.3c-0.1-0.1-0.1-0.2-0.2-0.5
			c-0.1-0.3-0.2-0.6-0.2-1c-0.1-0.4-0.1-0.7-0.2-1c-0.1-0.3-0.1-0.5-0.1-0.7V88.8c0.4-0.1,0.8-0.3,1.3-0.4c0.4-0.1,0.9-0.2,1.4-0.2
			c1,0,1.9,0.2,2.6,0.7c0.8,0.5,1.4,1.1,1.9,1.8c0.5,0.7,0.9,1.6,1.2,2.5c0.3,0.9,0.4,1.8,0.4,2.8c0,2-0.6,3.6-1.7,4.8
			c-1.2,1.1-2.8,1.7-4.8,1.7c-0.1,0-0.3,0-0.4,0c-0.1,0-0.3,0-0.4,0c-0.1,0-0.3,0-0.3,0.1c-0.1,0.1-0.1,0.2-0.2,0.4
			c0,0.2,0,0.3,0,0.4c0,0.1,0.1,0.2,0.3,0.2c0.8,0.2,1.6,0.3,2.4,0.3c1.3,0,2.5-0.3,3.6-0.9c1.1-0.6,2.1-1.3,2.9-2.3
			c0.8-0.9,1.4-2,1.9-3.2C120,96.4,120.2,95.2,120.2,94L120.2,94L120.2,94z M136.6,101.7c0-0.6-0.2-1.1-0.7-1.6
			c-0.5-0.5-1-0.8-1.7-0.8c-0.7,0-1.2,0.2-1.6,0.6c-0.4,0.4-0.6,0.9-0.6,1.5c0,0.5,0.2,1.1,0.5,1.6c0.3,0.5,0.8,0.8,1.5,0.8
			c0.3,0,0.6-0.1,0.9-0.2c0.3-0.1,0.6-0.3,0.8-0.5c0.2-0.2,0.4-0.4,0.6-0.7C136.6,102.3,136.6,102,136.6,101.7L136.6,101.7
			L136.6,101.7z M208,122l-0.5-0.7c-1.4,0.6-2.8,1-4.2,1.3c-1.4,0.3-2.9,0.5-4.4,0.5c-2.1,0-4.2-0.3-6.3-0.8c-2.1-0.5-4.1-1.2-6.2-2
			c-2-0.8-4-1.8-6-2.9c-1.9-1.1-3.8-2.1-5.6-3.2c2.2-1.6,3.9-3.7,5-6.1c1.2-2.4,1.8-5,1.8-7.7c0-2.3-0.4-4.4-1.3-6.3
			c-0.9-1.9-2-3.5-3.5-4.9c-1.5-1.4-3.2-2.4-5.2-3.1c-2-0.7-4.1-1.1-6.3-1.1c-2.3,0-4.5,0.4-6.5,1.2c-2,0.8-3.8,2-5.3,3.4
			c-1.5,1.5-2.7,3.2-3.5,5.2c-0.9,2-1.3,4.1-1.3,6.5c0,2.4,0.4,4.6,1.2,6.6c0.8,2,1.9,3.7,3.3,5.2c1.4,1.4,3.1,2.6,5.2,3.4
			c2,0.8,4.2,1.2,6.7,1.2c0.6,0,1.3-0.1,1.8-0.2c0.6-0.1,1.2-0.3,1.7-0.5c0.5-0.1,0.9-0.3,1.3-0.4c0.4-0.1,0.8-0.2,1.1-0.2h0.2
			c0.6,0.2,1.2,0.5,1.8,0.8c0.6,0.3,1.2,0.6,1.8,1c0.3,0.2,0.7,0.4,1.1,0.6c0.4,0.2,0.8,0.4,1.1,0.5c1.5,0.7,3,1.4,4.6,2.1
			c1.6,0.7,3.2,1.3,4.9,1.9c1.6,0.5,3.3,1,5,1.3c1.7,0.3,3.4,0.5,5.1,0.5c2,0,4-0.3,5.9-0.8C204.5,123.8,206.3,123,208,122L208,122
			L208,122z M176.8,100.6c0,1.6-0.2,3.2-0.6,4.8c-0.4,1.5-1.1,2.9-1.9,4.2c-0.8,1.3-1.8,2.5-3,3.5c-1.2,1-2.6,1.8-4.1,2.3
			c-2-0.3-3.9-0.9-5.6-1.8c-1.7-1-3.2-2.2-4.4-3.7c-1.2-1.5-2.2-3.2-2.9-5c-0.7-1.9-1-3.8-1-5.9c0-1.8,0.3-3.4,0.9-4.9
			c0.6-1.5,1.4-2.7,2.4-3.7c1-1,2.3-1.8,3.8-2.4c1.5-0.6,3.1-0.8,4.8-0.8c1.9,0,3.5,0.4,5,1.1c1.5,0.7,2.7,1.7,3.7,3
			c1,1.2,1.8,2.7,2.3,4.3C176.5,97.1,176.8,98.8,176.8,100.6L176.8,100.6z M198.1,101.7c0-0.6-0.2-1.1-0.7-1.6
			c-0.5-0.5-1-0.8-1.7-0.8c-0.7,0-1.2,0.2-1.6,0.6c-0.4,0.4-0.6,0.9-0.6,1.5c0,0.5,0.2,1.1,0.5,1.6c0.3,0.5,0.8,0.8,1.5,0.8
			c0.3,0,0.6-0.1,0.9-0.2c0.3-0.1,0.6-0.3,0.8-0.5c0.2-0.2,0.4-0.4,0.6-0.7C198,102.3,198.1,102,198.1,101.7L198.1,101.7
			L198.1,101.7z M241.3,117.5l-0.3-0.7c-1.1,0.2-2.1,0-3.1-0.6c-1-0.5-2-1.3-3-2.2c-1-0.9-1.9-2-2.8-3.2c-0.9-1.2-1.8-2.3-2.6-3.5
			c-0.5-0.7-1-1.3-1.5-2c-0.5-0.7-1-1.2-1.4-1.7c0.6-0.6,1.2-1.2,1.8-1.9c0.6-0.7,1.1-1.5,1.5-2.3c0.4-0.8,0.8-1.6,1.1-2.5
			c0.3-0.9,0.4-1.7,0.4-2.6c0-0.2,0-0.4,0-0.6c0-0.2,0-0.4-0.1-0.5c-0.3-1.4-0.9-2.5-1.6-3.4c-0.7-0.9-1.5-1.5-2.5-2
			c-1-0.5-2-0.8-3.1-0.9c-1.1-0.2-2.3-0.2-3.5-0.2h-2.2c-0.3,0-0.5,0-0.7,0c-0.2,0-0.5,0-0.7,0c-0.4,0-0.9,0-1.3,0
			c-0.4,0-0.9,0-1.3,0h-2.8h-0.8c-0.2,0-0.3,0-0.4,0.1c-0.1,0.1-0.1,0.2,0,0.4c0.1,0.3,0.3,0.5,0.5,0.5c0.3,0.1,0.6,0.1,1,0.2
			c0.2,0,0.4,0.1,0.6,0.1c0.2,0,0.4,0.1,0.5,0.3c0.2,0.1,0.3,0.3,0.4,0.6c0.1,0.3,0.2,0.7,0.2,1.1v23.2c0,0.7,0,1.2,0,1.7
			c0,0.4-0.1,0.8-0.3,1c-0.2,0.3-0.4,0.4-0.7,0.6c-0.3,0.1-0.8,0.3-1.4,0.4c-0.3,0.1-0.4,0.2-0.4,0.4c0,0.2,0.2,0.3,0.4,0.4
			c1.7,0.1,3.4,0.1,5.1,0.1c1.7,0,3.4,0,5.1,0c0.2,0,0.4-0.1,0.5-0.2c0.1-0.1,0-0.3-0.1-0.4c-0.3-0.2-0.5-0.4-0.9-0.4
			c-0.3-0.1-0.6-0.1-0.9-0.1c-0.1,0-0.3-0.1-0.6-0.1c-0.2,0-0.4-0.1-0.6-0.1c-0.1-0.1-0.2-0.2-0.3-0.5c-0.1-0.3-0.2-0.6-0.3-1
			c-0.1-0.4-0.1-0.7-0.2-1.1s-0.1-0.6-0.1-0.7v-7.8c0.2,0,0.5,0,0.7,0c0.3,0,0.5,0,0.8,0c0.6,0,1.3,0.1,2,0.2
			c0.7,0.1,1.4,0.4,1.9,0.8c0.7,0.6,1.3,1.3,1.9,2.2c0.6,0.9,1.3,1.7,1.9,2.6c0.6,0.9,1.3,1.8,2,2.7c0.7,0.9,1.4,1.7,2.2,2.4
			c0.8,0.7,1.7,1.3,2.6,1.7c0.9,0.4,2,0.6,3.2,0.6c0.7,0,1.4-0.1,2.1-0.3C240,118.1,240.6,117.8,241.3,117.5L241.3,117.5
			L241.3,117.5z M226.7,96.5c0,0.5,0,1-0.1,1.6c-0.1,0.5-0.2,1-0.4,1.6c-0.2,0.5-0.4,1-0.6,1.4c-0.3,0.4-0.6,0.8-1,1.1
			c-0.4,0.3-0.9,0.5-1.5,0.5c-0.6,0.1-1.2,0.1-1.6,0.1c-1.2,0-2.4-0.1-3.5-0.3V88.7c0.8-0.3,1.5-0.4,2.3-0.4c1.1,0,2,0.2,2.8,0.7
			c0.8,0.5,1.5,1.1,2,1.9c0.5,0.8,0.9,1.6,1.2,2.6C226.6,94.5,226.7,95.5,226.7,96.5L226.7,96.5L226.7,96.5z"/>
	</g>
</g>
<g transform="translate(-2.3652656,10.14319)">
	<path inkscape:connector-curvature="0" d="M71.4,109.3c0-1-0.2-1.9-0.6-2.8c-0.4-0.9-0.9-1.7-1.5-2.5c-0.6-0.8-1.3-1.5-2.1-2.2
		c-0.8-0.7-1.6-1.4-2.4-2.1c-0.7-0.6-1.3-1.2-2-1.7c-0.7-0.6-1.2-1.1-1.8-1.7c-0.5-0.6-0.9-1.2-1.2-1.9c-0.3-0.6-0.5-1.3-0.5-2.1
		c0-0.7,0.1-1.3,0.4-1.9c0.3-0.6,0.6-1.1,1-1.5c0.4-0.4,0.9-0.7,1.5-1c0.6-0.2,1.2-0.3,1.8-0.3c0.7,0,1.3,0.1,1.9,0.3
		c0.6,0.2,1.1,0.5,1.5,0.9c0.4,0.4,0.8,0.9,1,1.4c0.2,0.6,0.4,1.2,0.4,1.9c0,0.2,0.1,0.3,0.3,0.4c0.2,0.1,0.4,0,0.5-0.1
		c0.4-0.5,0.6-1.2,0.7-2c0.1-0.8,0.1-1.6,0.1-2.3v-1.5c0-0.2-0.1-0.3-0.3-0.4c-1.3-0.4-2.7-0.5-4.2-0.5c-1.1,0-2.2,0.1-3.5,0.4
		c-1.3,0.3-2.4,0.7-3.5,1.3c-1.1,0.6-2,1.4-2.7,2.3c-0.7,0.9-1.1,2-1.1,3.3c0,0.9,0.2,1.7,0.6,2.5c0.4,0.8,0.9,1.6,1.5,2.5
		c0.6,0.8,1.3,1.6,2.1,2.4c0.8,0.8,1.6,1.6,2.4,2.3v0c0.7,0.7,1.4,1.4,2.1,2.1c0.7,0.7,1.3,1.4,1.9,2.1c0.5,0.7,1,1.4,1.3,2.1
		c0.3,0.7,0.5,1.4,0.5,2.1c0,0.7-0.2,1.4-0.5,2c-0.3,0.6-0.8,1.1-1.3,1.5c-0.5,0.4-1.2,0.7-1.8,1c-0.7,0.2-1.3,0.3-2,0.3
		c-0.7,0-1.4-0.1-2.1-0.3s-1.3-0.5-1.8-1c-0.5-0.4-0.9-0.9-1.2-1.5c-0.3-0.6-0.4-1.3-0.4-2l0-0.7c0-0.1,0-0.2-0.1-0.3
		c-0.1-0.1-0.2-0.1-0.3-0.1c-0.1,0-0.2,0-0.3,0.1c-0.1,0-0.2,0.1-0.2,0.2c-0.1,0.2-0.1,0.5-0.2,0.7c-0.1,0.3-0.1,0.6-0.2,0.9
		c-0.1,0.4-0.2,0.8-0.3,1.2c-0.1,0.4-0.1,0.8-0.1,1.3c0,0.7,0.2,1.3,0.5,1.8c0.3,0.5,0.8,0.9,1.3,1.2c0.5,0.3,1.1,0.5,1.8,0.6
		c0.6,0.1,1.3,0.2,1.8,0.2c1.2,0,2.5-0.2,3.8-0.6c1.3-0.4,2.5-1,3.6-1.8c1.1-0.8,2-1.7,2.7-2.8C71,111.9,71.4,110.6,71.4,109.3
		L71.4,109.3L71.4,109.3z M87.8,101.7c0-0.6-0.2-1.1-0.7-1.6c-0.5-0.5-1-0.8-1.7-0.8c-0.7,0-1.2,0.2-1.6,0.6
		c-0.4,0.4-0.6,0.9-0.6,1.5c0,0.5,0.2,1.1,0.5,1.6c0.3,0.5,0.8,0.8,1.5,0.8c0.3,0,0.6-0.1,0.9-0.2c0.3-0.1,0.6-0.3,0.8-0.5
		c0.2-0.2,0.4-0.4,0.6-0.7C87.7,102.3,87.8,102,87.8,101.7C87.8,101.7,87.8,101.7,87.8,101.7z M120.2,94c0-1.7-0.3-3.1-0.9-4
		c-0.6-1-1.4-1.7-2.4-2.2c-1-0.5-2.1-0.8-3.4-1c-1.3-0.1-2.5-0.2-3.8-0.2h-3.4c-0.4,0-0.8,0-1.3,0c-0.4,0-0.9,0-1.3,0
		c-0.5,0-0.9,0-1.4,0c-0.4,0-0.9,0-1.3,0h-0.9c-0.2,0-0.4,0.1-0.5,0.2c-0.1,0.1-0.1,0.2,0,0.4c0.1,0.3,0.4,0.5,0.7,0.6
		c0.3,0.1,0.6,0.1,1,0.2c0.2,0,0.4,0.1,0.6,0.1c0.2,0,0.4,0.1,0.5,0.3c0.2,0.1,0.3,0.3,0.4,0.6c0.1,0.3,0.1,0.6,0.1,1v23.4
		c0,0.7,0,1.3,0,1.7c0,0.4-0.1,0.8-0.3,1c-0.2,0.3-0.4,0.4-0.8,0.6c-0.3,0.1-0.8,0.3-1.4,0.4c-0.3,0.1-0.4,0.2-0.4,0.4
		c0,0.2,0.2,0.3,0.4,0.4c1.7,0.1,3.4,0.1,5.1,0.1c1.7,0,3.4,0,5.1,0c0.2,0,0.3,0,0.4-0.1c0.1-0.1,0.1-0.2,0-0.4
		c-0.1-0.3-0.3-0.5-0.6-0.5c-0.3,0-0.6-0.1-1-0.1c-0.2,0-0.5-0.1-0.8-0.1c-0.3,0-0.5-0.1-0.6-0.3c-0.1-0.1-0.1-0.2-0.2-0.5
		c-0.1-0.3-0.2-0.6-0.2-1c-0.1-0.4-0.1-0.7-0.2-1c-0.1-0.3-0.1-0.5-0.1-0.7V88.8c0.4-0.1,0.8-0.3,1.3-0.4c0.4-0.1,0.9-0.2,1.4-0.2
		c1,0,1.9,0.2,2.6,0.7c0.8,0.5,1.4,1.1,1.9,1.8c0.5,0.7,0.9,1.6,1.2,2.5c0.3,0.9,0.4,1.8,0.4,2.8c0,2-0.6,3.6-1.7,4.8
		c-1.2,1.1-2.8,1.7-4.8,1.7c-0.1,0-0.3,0-0.4,0c-0.1,0-0.3,0-0.4,0c-0.1,0-0.3,0-0.3,0.1c-0.1,0.1-0.1,0.2-0.2,0.4
		c0,0.2,0,0.3,0,0.4c0,0.1,0.1,0.2,0.3,0.2c0.8,0.2,1.6,0.3,2.4,0.3c1.3,0,2.5-0.3,3.6-0.9c1.1-0.6,2.1-1.3,2.9-2.3
		c0.8-0.9,1.4-2,1.9-3.2C120,96.4,120.2,95.2,120.2,94L120.2,94L120.2,94z M136.6,101.7c0-0.6-0.2-1.1-0.7-1.6
		c-0.5-0.5-1-0.8-1.7-0.8c-0.7,0-1.2,0.2-1.6,0.6c-0.4,0.4-0.6,0.9-0.6,1.5c0,0.5,0.2,1.1,0.5,1.6c0.3,0.5,0.8,0.8,1.5,0.8
		c0.3,0,0.6-0.1,0.9-0.2c0.3-0.1,0.6-0.3,0.8-0.5c0.2-0.2,0.4-0.4,0.6-0.7C136.6,102.3,136.6,102,136.6,101.7L136.6,101.7
		L136.6,101.7z M208,122l-0.5-0.7c-1.4,0.6-2.8,1-4.2,1.3c-1.4,0.3-2.9,0.5-4.4,0.5c-2.1,0-4.2-0.3-6.3-0.8c-2.1-0.5-4.1-1.2-6.2-2
		c-2-0.8-4-1.8-6-2.9c-1.9-1.1-3.8-2.1-5.6-3.2c2.2-1.6,3.9-3.7,5-6.1c1.2-2.4,1.8-5,1.8-7.7c0-2.3-0.4-4.4-1.3-6.3
		c-0.9-1.9-2-3.5-3.5-4.9c-1.5-1.4-3.2-2.4-5.2-3.1c-2-0.7-4.1-1.1-6.3-1.1c-2.3,0-4.5,0.4-6.5,1.2c-2,0.8-3.8,2-5.3,3.4
		c-1.5,1.5-2.7,3.2-3.5,5.2c-0.9,2-1.3,4.1-1.3,6.5c0,2.4,0.4,4.6,1.2,6.6c0.8,2,1.9,3.7,3.3,5.2c1.4,1.4,3.1,2.6,5.2,3.4
		c2,0.8,4.2,1.2,6.7,1.2c0.6,0,1.3-0.1,1.8-0.2c0.6-0.1,1.2-0.3,1.7-0.5c0.5-0.1,0.9-0.3,1.3-0.4c0.4-0.1,0.8-0.2,1.1-0.2h0.2
		c0.6,0.2,1.2,0.5,1.8,0.8c0.6,0.3,1.2,0.6,1.8,1c0.3,0.2,0.7,0.4,1.1,0.6c0.4,0.2,0.8,0.4,1.1,0.5c1.5,0.7,3,1.4,4.6,2.1
		c1.6,0.7,3.2,1.3,4.9,1.9c1.6,0.5,3.3,1,5,1.3c1.7,0.3,3.4,0.5,5.1,0.5c2,0,4-0.3,5.9-0.8C204.5,123.8,206.3,123,208,122L208,122
		L208,122z M176.8,100.6c0,1.6-0.2,3.2-0.6,4.8c-0.4,1.5-1.1,2.9-1.9,4.2c-0.8,1.3-1.8,2.5-3,3.5c-1.2,1-2.6,1.8-4.1,2.3
		c-2-0.3-3.9-0.9-5.6-1.8c-1.7-1-3.2-2.2-4.4-3.7c-1.2-1.5-2.2-3.2-2.9-5c-0.7-1.9-1-3.8-1-5.9c0-1.8,0.3-3.4,0.9-4.9
		c0.6-1.5,1.4-2.7,2.4-3.7c1-1,2.3-1.8,3.8-2.4c1.5-0.6,3.1-0.8,4.8-0.8c1.9,0,3.5,0.4,5,1.1c1.5,0.7,2.7,1.7,3.7,3
		c1,1.2,1.8,2.7,2.3,4.3C176.5,97.1,176.8,98.8,176.8,100.6L176.8,100.6z M198.1,101.7c0-0.6-0.2-1.1-0.7-1.6
		c-0.5-0.5-1-0.8-1.7-0.8c-0.7,0-1.2,0.2-1.6,0.6c-0.4,0.4-0.6,0.9-0.6,1.5c0,0.5,0.2,1.1,0.5,1.6c0.3,0.5,0.8,0.8,1.5,0.8
		c0.3,0,0.6-0.1,0.9-0.2c0.3-0.1,0.6-0.3,0.8-0.5c0.2-0.2,0.4-0.4,0.6-0.7C198,102.3,198.1,102,198.1,101.7L198.1,101.7L198.1,101.7
		z M241.3,117.5l-0.3-0.7c-1.1,0.2-2.1,0-3.1-0.6c-1-0.5-2-1.3-3-2.2c-1-0.9-1.9-2-2.8-3.2c-0.9-1.2-1.8-2.3-2.6-3.5
		c-0.5-0.7-1-1.3-1.5-2c-0.5-0.7-1-1.2-1.4-1.7c0.6-0.6,1.2-1.2,1.8-1.9c0.6-0.7,1.1-1.5,1.5-2.3c0.4-0.8,0.8-1.6,1.1-2.5
		c0.3-0.9,0.4-1.7,0.4-2.6c0-0.2,0-0.4,0-0.6c0-0.2,0-0.4-0.1-0.5c-0.3-1.4-0.9-2.5-1.6-3.4c-0.7-0.9-1.5-1.5-2.5-2
		c-1-0.5-2-0.8-3.1-0.9c-1.1-0.2-2.3-0.2-3.5-0.2h-2.2c-0.3,0-0.5,0-0.7,0c-0.2,0-0.5,0-0.7,0c-0.4,0-0.9,0-1.3,0
		c-0.4,0-0.9,0-1.3,0h-2.8h-0.8c-0.2,0-0.3,0-0.4,0.1c-0.1,0.1-0.1,0.2,0,0.4c0.1,0.3,0.3,0.5,0.5,0.5c0.3,0.1,0.6,0.1,1,0.2
		c0.2,0,0.4,0.1,0.6,0.1c0.2,0,0.4,0.1,0.5,0.3c0.2,0.1,0.3,0.3,0.4,0.6c0.1,0.3,0.2,0.7,0.2,1.1v23.2c0,0.7,0,1.2,0,1.7
		c0,0.4-0.1,0.8-0.3,1c-0.2,0.3-0.4,0.4-0.7,0.6c-0.3,0.1-0.8,0.3-1.4,0.4c-0.3,0.1-0.4,0.2-0.4,0.4c0,0.2,0.2,0.3,0.4,0.4
		c1.7,0.1,3.4,0.1,5.1,0.1c1.7,0,3.4,0,5.1,0c0.2,0,0.4-0.1,0.5-0.2c0.1-0.1,0-0.3-0.1-0.4c-0.3-0.2-0.5-0.4-0.9-0.4
		c-0.3-0.1-0.6-0.1-0.9-0.1c-0.1,0-0.3-0.1-0.6-0.1c-0.2,0-0.4-0.1-0.6-0.1c-0.1-0.1-0.2-0.2-0.3-0.5c-0.1-0.3-0.2-0.6-0.3-1
		c-0.1-0.4-0.1-0.7-0.2-1.1s-0.1-0.6-0.1-0.7v-7.8c0.2,0,0.5,0,0.7,0c0.3,0,0.5,0,0.8,0c0.6,0,1.3,0.1,2,0.2
		c0.7,0.1,1.4,0.4,1.9,0.8c0.7,0.6,1.3,1.3,1.9,2.2c0.6,0.9,1.3,1.7,1.9,2.6c0.6,0.9,1.3,1.8,2,2.7c0.7,0.9,1.4,1.7,2.2,2.4
		c0.8,0.7,1.7,1.3,2.6,1.7c0.9,0.4,2,0.6,3.2,0.6c0.7,0,1.4-0.1,2.1-0.3C240,118.1,240.6,117.8,241.3,117.5L241.3,117.5L241.3,117.5
		z M226.7,96.5c0,0.5,0,1-0.1,1.6c-0.1,0.5-0.2,1-0.4,1.6c-0.2,0.5-0.4,1-0.6,1.4c-0.3,0.4-0.6,0.8-1,1.1c-0.4,0.3-0.9,0.5-1.5,0.5
		c-0.6,0.1-1.2,0.1-1.6,0.1c-1.2,0-2.4-0.1-3.5-0.3V88.7c0.8-0.3,1.5-0.4,2.3-0.4c1.1,0,2,0.2,2.8,0.7c0.8,0.5,1.5,1.1,2,1.9
		c0.5,0.8,0.9,1.6,1.2,2.6C226.6,94.5,226.7,95.5,226.7,96.5L226.7,96.5L226.7,96.5z"/>
</g>
<g id="g3056" transform="matrix(0.40541313,0,0,0.33606381,-0.20574716,11.643365)">
	<g id="layer3" transform="translate(-13.780518,-162.03807)" inkscape:label="wood">
	</g>
	<g id="layer1" transform="translate(-13.780518,-197.19186)" inkscape:label="Layer 1">
		<g id="g22249">
			<path id="path18706" inkscape:connector-curvature="0" sodipodi:nodetypes="cssscccccccccc" d="M209.3,228.5
				C126.4,284.2,71.5,381.4,71.5,492C71.5,665,205.7,805.3,371,805.3S670.5,665,670.5,492c0-114.1-58.5-214.1-145.8-268.8
				c-20-9.6-109.8-64.7,0,9.9c27.9,18.1,52.9,40.9,73.4,67.7c50.7,64.7,73,152.3,61.5,235.1c-11.2,85.7-60.1,164.3-129,211.3
				c-67.7,47.3-154.9,61.5-233.5,39.8c-83.9-22.1-155.9-86.6-191.6-168.9c-38.3-86-33.7-191.2,10.4-273.8
				c22.2-42.6,54.8-78.8,93.4-105.6C318.3,157,237.2,209.4,209.3,228.5L209.3,228.5z"/>
			<path id="path17799" inkscape:connector-curvature="0" d="M242.7,842.8c0-1.2,58.1-30.2,68.6-34.2c14.4-5.6,38.1-9.6,46.5-7.9
				l6.1,1.3l-6.8,8.2c-3.7,4.5-10,10.4-13.8,13c-9.3,6.5-32.1,14.3-49.6,16.9C281.2,841.9,242.7,844,242.7,842.8z M474.2,842.1
				c-26.1-1.6-28.1-1.9-52.4-9.6c-14.6-4.6-18.3-6.8-29.5-17.6l-12.9-12.3l5.7-1.6c14.6-4.1,61.5,9.4,82,23.6
				c3.9,2.7,9.3,5.6,12.1,6.4c6.2,1.9,23.8,10.9,23.8,12.2c0,0.5-1.1,0.8-2.5,0.7C499.1,843.7,487.3,842.9,474.2,842.1L474.2,842.1z
				 M190,807.2c-10.9-3.4-23.8-7.3-28.5-8.6l-8.6-2.5l14.6-2.5c8-1.4,23.3-4.3,33.9-6.5c29.5-6,59.1-4.3,78.3,4.6l5.1,2.4l-6.4,5.7
				C261.6,814.8,224.4,817.9,190,807.2L190,807.2z M485.2,809.6c-14.2-5.2-27.2-14.4-23.5-16.5c7.8-4.5,33.7-9.9,47-9.9
				c12.3,0,44.5,5.1,75.3,11.8c5.8,1.3,3.4,2.4-22.1,10.1c-24.9,7.5-31,8.6-47.3,8.6C501.3,813.6,493,812.4,485.2,809.6L485.2,809.6
				z M320.9,793.1c-12.5-3.7-38.6-34-43.4-50.3l-1.4-4.7l8.6,4.5c4.7,2.5,14.8,6.6,22.3,9.3c25.1,8.8,36.7,18.2,43.9,36l3.1,7.5
				l-13.4-0.2C333.2,795.1,324.3,794.2,320.9,793.1L320.9,793.1z M391.7,791.7c0-5.5,14.2-23.6,23.4-29.9c4.1-2.8,13.2-7,20.2-9.3
				s17.1-6.5,22.5-9.1l9.8-4.8l-1.3,5.2c-3.1,12.5-22.4,37.8-34.5,45c-6.9,4.2-12.3,5.5-24.5,6.3
				C392.6,795.8,391.7,795.6,391.7,791.7z M266.5,781.7c-21.5-7.8-36.7-25.6-44.8-52.4c-2.7-9.1-5.5-20.4-6.2-25.2l-1.2-8.8
				l26.8,27.1c27.6,28,33.3,36.3,35,52C277,783.5,275.2,784.9,266.5,781.7z M467.8,775c2.3-17.9,12.5-31.7,50.3-67.9l12.1-11.6
				l-1.6,10.5c-5.2,33.5-22.2,62.7-42.3,72.2c-5.6,2.7-12.3,4.9-14.9,4.9C467.1,783.2,466.8,782.5,467.8,775L467.8,775z M156.2,763
				c-22.9-7.3-28.8-10.3-50.7-25.8c-12.1-8.6-21.8-15.8-21.4-16.1c3-2.2,74.7,5.8,80.9,9c1.7,0.9,8.9,4.5,16,8.1
				c7.1,3.5,16.4,9.6,20.7,13.4l7.8,7l-7.1,3.1C190.5,766.8,169.9,767.4,156.2,763L156.2,763z M551,764.7c-4.8-1-9.9-2.8-11.5-4.1
				c-3.7-3.1-0.2-7.2,14.6-17.3c16.3-11.1,34.7-16.8,61.6-19.1c34.6-3,44.1-3.3,43-1.5c-2.3,3.8-43.2,30.4-52.8,34.3
				C583.6,766.1,568.5,768.2,551,764.7L551,764.7z M193.5,737.7c-12.5-9.6-23.7-26.1-26.3-38.6c-1.3-6-2-22.3-1.6-37.1l0.6-26.5
				l7.3,14.3c4,7.8,9.6,17.8,12.5,22c13.9,20.8,21.7,49,17.8,64.9l-1.8,7.5L193.5,737.7z M541.2,723.8c1.1-22,4.4-32.8,15-47.9
				c2.5-3.5,8.4-14,13.2-23.2l8.7-16.7l1.4,17.1c1.7,20.6-1.1,47-6.1,57.9c-3.9,8.5-20.8,27.1-28.5,31.3l-4.7,2.6L541.2,723.8
				L541.2,723.8z M118.2,698.7c-6.7-1.5-15.2-4.4-18.9-6.3c-12-6.4-32.4-24.5-41.4-36.7c-4.8-6.6-11.5-15-14.8-18.6
				c-6.7-7.5-6.3-7.8,4.2-3.7c4.1,1.6,12.5,3.9,18.7,5.2c12.8,2.6,35,13,47.6,22.3c9.5,7.1,24.3,24,28.9,33c2.7,5.4,2.7,5.8-0.6,5.9
				c-1.9,0-5.3,0.4-7.5,0.9C132.2,701.1,124.9,700.2,118.2,698.7L118.2,698.7z M605.8,700.3c-3-0.5-5.5-1.3-5.5-1.9
				c0-4,12.2-20.7,21.6-29.7c13.1-12.3,39.9-26.8,56-30.2c6-1.3,14.8-3.6,19.5-5.2c10.3-3.5,12.6-2.5,5.3,2.4
				c-2.9,1.9-8.3,8.2-12.1,13.9c-11.6,17.7-18,23.7-42.4,40.5C639.2,696.4,616.1,701.9,605.8,700.3L605.8,700.3z M134.8,673.2
				c-5.2-6.2-7.6-11.9-10.1-23.5c-1.8-8.4-3.3-18.9-3.3-23.2c0-11.3,7.3-45.8,11.7-55.8c3.8-8.4,3.8-8.4,4-2.4
				c0.1,3.4,3.3,18.9,7.1,34.6c4.3,17.9,6.9,33.5,6.9,41.9c0,13.2-4.4,33.3-7.8,35.4C142.4,680.9,138.6,677.7,134.8,673.2z
				 M598.7,675.7c-8-20.8-7.7-34.5,1.6-72.7c3.3-13.4,6-26.9,6-29.9c0.1-17.8,8.8,2.3,14,32.2c5,28.7-1.5,62.2-13.7,71.5l-5.8,4.4
				L598.7,675.7L598.7,675.7z M82,618.1c-14.2-5.2-28.5-16.7-37-29.8c-3.8-5.9-12.3-21.8-18.8-35.3l-11.8-24.5l9.4,5.5
				c5.1,3,14.6,9.2,21,13.8c6.4,4.5,14.8,10.2,18.6,12.6c14.4,8.9,30.7,35,33.6,53.8C98.3,623.7,97.7,623.9,82,618.1L82,618.1z
				 M646.1,619.2c0-1.7,2.8-10.6,6.2-19.7c7-18.7,16.3-30.4,33.3-42.1c15.5-10.7,40.8-26.7,42.1-26.7c2.1,0-23.9,51.9-30.8,61.4
				c-8.1,11.2-21.4,21.1-35.6,26.4C648.9,623.1,646.1,623.3,646.1,619.2L646.1,619.2z M95.8,592.8c-5.3-14.6-5.4-33.2-0.2-50.5
				c4.3-14.1,29.8-56.5,29.7-49.3c-0.3,23.7-4.3,71.2-6.6,78.6c-3.9,12.6-9.9,24.4-14.8,28.9C100,604.2,99.9,604.1,95.8,592.8
				L95.8,592.8z M639.6,600.4c-4.8-5.5-12.6-22.8-15.2-33.8c-2-8.6-6.6-74.8-5.3-76.2c1.5-1.6,25.4,39,29.1,49.4
				c6.1,17.2,6.1,41.2-0.1,54.5c-2.5,5.3-4.7,9.7-5,9.7S641.3,602.4,639.6,600.4L639.6,600.4z M59.5,527.4
				c-18.2-12.3-28.4-33-34.3-69.2c-1.6-10.2-3.6-20.3-4.4-22.4c-1.1-3,0.2-2.4,5.7,2.2c3.9,3.4,9.4,7.7,12,9.6
				c8.4,5.9,29.7,38.4,33.6,51.2c4.4,14.4,5,36,0.9,36C71.5,534.8,65.4,531.5,59.5,527.4L59.5,527.4z M668.6,519.6
				c1.5-17.8,6.1-31.3,15.4-45c7-10.3,37-41.6,39.8-41.6c0.9,0,0.7,2.4-0.3,5.3c-1.1,2.9-3.2,13.2-4.8,22.9
				c-5.4,34.1-16.8,55.9-34.8,67C667.8,538,667.1,537.6,668.6,519.6L668.6,519.6z M80.7,509.6c-0.9-7.4-0.3-15.1,1.9-23.9
				c5.5-22.2,11.6-32.3,30.9-51.2c9.9-9.7,17.9-17.1,17.9-16.5s-1.4,5.8-3.2,11.6c-9.7,32.2-15.7,49.8-19.3,56.2
				c-5.5,9.9-23.7,34.7-25.5,34.7C82.6,520.5,81.4,515.6,80.7,509.6z M652.5,510.7c-16.1-19.6-24.8-39.5-39.2-89.9l-1.4-5.1l4.9,5.1
				c2.7,2.8,11.7,11.8,19.9,20c12.7,12.7,15.7,17.1,20.3,29.5c5.7,15.6,8.4,38,5.5,45.8C660.9,520.6,660.5,520.4,652.5,510.7
				L652.5,510.7z M66.6,443.4c-15.9-9.9-22.2-31.9-19.7-68.3c0.9-12.4,1.6-25.5,1.6-29c0-6.3,0.2-6.1,6.8,5.1c3.7,6.3,8,13,9.5,14.7
				c4.1,4.6,11.9,23.9,14.8,36.3c2.5,10.9,1.9,22.3-2,37.3C75.3,448.4,74.9,448.5,66.6,443.4L66.6,443.4z M667.5,442.6
				c-1.6-2.9-2.5-12.4-2.6-26c0-20,0.4-22.2,6.4-34.6c3.5-7.3,10.3-19.4,15.1-27l8.7-13.7l1.7,19.8c3,34.9,0.9,54.3-7.7,70.3
				c-3.5,6.6-13.9,15.7-17.9,15.7C670.6,447.2,668.9,445.2,667.5,442.6z M85.7,429.8c0-17.2,9.9-36.1,26.9-51.5
				c7.2-6.5,42-26.8,45.9-26.8c0.6,0-1.8,3.4-5.2,7.6c-3.4,4.2-11.6,15.9-18.2,26c-13.2,20.2-26.2,34.9-38.9,44
				C86.1,436.3,85.7,436.3,85.7,429.8z M649,429.6c-11.8-8-28.6-25.2-32.9-33.7c-5.9-11.6-15.9-26.4-23.1-34.2
				c-3.6-3.9-6.6-7.8-6.6-8.8s9,3.1,20,9c15.7,8.4,22.8,13.7,32.7,24.5c12.7,13.8,15.5,19.8,19.8,41.9
				C660.6,436.4,659.2,436.6,649,429.6z M88.3,361.3c-12.9-22.3-12.4-36.9,2.8-82.9l5.7-17.1l6.7,20.9c5.3,16.5,6.7,24.2,6.7,36.5
				c0,17.1-5.4,34.9-13.4,44.5l-4.4,5.3L88.3,361.3L88.3,361.3z M648.7,365.5c-1.2-1.5-4.7-7.8-7.9-14c-5.3-10.4-5.7-12.8-5.6-33.6
				c0.1-20,0.8-24.1,6.3-38.7c3.7-9.8,6.6-15.1,7.3-13.2c8.7,23,17,53.9,17.1,63.5c0,8.6-6.4,27.8-11.6,34.3
				C651.5,367.4,650.5,367.7,648.7,365.5z M108.7,353.1c6.8-22.1,35.1-43.2,68.7-51.4c19.8-4.8,21.1-4,9.4,5
				c-5.8,4.5-13.7,11.1-17.6,14.9c-16.6,15.9-49.1,36-58.4,36C108,357.6,107.6,356.7,108.7,353.1z M627.4,356.2
				c-7.1-1.9-28-14.7-38.9-23.9c-6-5.1-17.4-14.4-25.2-20.9c-7.9-6.4-14-12-13.6-12.4c1.9-1.9,26.9,4.7,41.5,10.9
				c18.6,8,33.9,21.1,40.8,34.9C638.2,357.5,637.6,358.9,627.4,356.2z M125.8,289.9c-3-14.2-1.2-31.3,4.4-43
				c2.8-5.8,10.8-17.6,17.9-26.3l12.8-15.8l1.4,13.3c3,29.1-3.9,53.4-20.1,69.8c-5.8,5.9-11.4,10.7-12.5,10.7
				C128.5,298.6,126.8,294.7,125.8,289.9z M603.8,289.6c-5.6-5.3-11.7-13.8-14.9-20.8c-4.8-10.7-5.5-14.7-6.1-38.4l-0.7-26.5l7.6,9
				c22.1,26,28.1,37.3,29.8,55.6c1.1,12.2-1.8,30.1-4.8,30.1C613.9,298.6,609,294.5,603.8,289.6L603.8,289.6z M155.5,282.2
				c17-16.5,34-22.3,64.9-22.2c21.9,0,25.7,2.2,12.9,7.1c-5.3,2-16.7,7.3-25.4,11.7c-17.4,8.8-35.9,13.7-52.4,13.7l-10.6,0
				L155.5,282.2L155.5,282.2z M565.6,289.6c-6.6-1.4-20.4-6.6-30.8-11.7c-10.4-5.1-22.2-10.5-26.3-12c-10.7-3.9-5.7-5.9,15-6
				c31.8-0.1,51.9,7.3,68.8,25.3l6.8,7.3l-10.8-0.2C582.4,292.2,572.2,291,565.6,289.6L565.6,289.6z M210.4,247.8
				c-4.1-0.8-8-2.1-8.7-2.8c-2.3-2.3,3.2-7,13.8-11.7c15.9-7.2,40.6-6.7,63.5,1.2c9.6,3.3,17.4,6.7,17.4,7.6c0,0.9-3.4,1.6-7.5,1.6
				c-4.1,0-17.3,1.4-29.3,3C236.2,249.9,222.4,250.2,210.4,247.8L210.4,247.8z M492.1,247.7c-6.6-0.9-19.3-2.4-28.4-3.2
				c-9.1-0.8-15.8-2.2-14.9-3.1c3.4-3.4,32.1-11.9,44.4-13.2c14.9-1.6,34.5,2.7,43.8,9.4c6.6,4.8,7.2,7,2.3,8.9
				C533.6,248.8,504.9,249.5,492.1,247.7L492.1,247.7z M182.2,240.4c-4.4-17.8,8.7-39.8,33.8-57.2c6.5-4.5,13.7-9.2,16-10.4l4.3-2.3
				l-3.5,14.1c-5,19.9-10.6,30.7-22.1,42.7c-8.2,8.5-22.4,18.5-26.3,18.5C183.9,245.7,182.9,243.3,182.2,240.4z M550.5,241.6
				c-9.3-5.1-27.3-25.2-31.9-35.9c-3.8-8.8-10.4-33.3-9.3-34.4c0.4-0.4,7.1,3.7,15.1,8.9c16,10.6,33.3,30,36.5,40.9
				c2.4,8.3,1.7,22.8-1.2,23.7C558.5,245.2,554.4,243.7,550.5,241.6z M245.7,204.4c4.1-19.7,14.4-27.8,45.6-36.1
				c7.7-2,15.6-4.4,17.6-5.2c7-2.9-2.1,10.8-17.6,26.7c-14.9,15.2-26.5,21.2-41.3,21.2C244.6,211,244.4,210.7,245.7,204.4
				L245.7,204.4z M477.3,207.7c-4.8-1.7-12.3-6-16.7-9.6c-7.4-6-29.7-34-28.3-35.5c0.4-0.4,5,0.7,10.3,2.4
				c5.3,1.7,15.3,4.7,22.3,6.7c19.4,5.6,34.1,20.8,34.1,35.2c0,3.3-1.3,4.1-6.5,4C489,210.9,482.1,209.4,477.3,207.7z"/>
		</g>
	</g>
</g>
</svg>
