<?xml version="1.0" encoding="utf-8"?>
<!-- Generator: Adobe Illustrator 23.0.2, SVG Export Plug-In . SVG Version: 6.00 Build 0)  -->
<svg version="1.1" id="Layer_1" xmlns="http://www.w3.org/2000/svg" xmlns:xlink="http://www.w3.org/1999/xlink" x="0px" y="0px"
	 viewBox="0 0 513.5 517.7" style="enable-background:new 0 0 513.5 517.7;" xml:space="preserve">
<style type="text/css">
	.st0{fill:#7DFFC8;}
	.st1{fill:none;stroke:#000000;stroke-width:5;stroke-linecap:round;stroke-miterlimit:10;stroke-dasharray:24.0319,12.016;}
</style>
<path class="st0" d="M315.3,512.8c-3.8,1.5-7.8,2.7-12,3.5c-18.6,3.7-37.1-0.1-49.3-10.3l-0.5-0.5c-17.9-19.3-53.4-24.7-76.1-11.6
	l-0.7,0.3c-0.2,0.1-0.3,0.1-0.5,0.2c-14.9,5.8-33.5,3.9-50.1-5.2c-16.5-9.1-28.1-23.9-30.9-39.4L95,449
	c-1.3-26.2-25.1-53.2-50.9-57.8l-0.7-0.2C28.2,386.2,15,372.7,8,355c-6.9-17.7-6.4-36.6,1.5-50.5l0.4-0.6c15.8-20.9,15-56.8-1.9-77
	l-0.4-0.6c-8.6-13.5-10-32.4-3.8-50.5c6.1-18.1,18.6-32,33.6-37.5l0.7-0.2c25.5-5.8,48-33.9,48-60.2v-0.7c2.1-15.8,13-31.1,29.2-41
	c16.3-10,35-12.7,50.1-7.3l0.7,0.3c23.7,12.1,58.2,5.2,75.5-15.3l0.5-0.5c11.8-10.7,30-15.4,48.8-12.6c18.8,2.8,34.9,12.8,43.1,26.6
	l0.3,0.7c10,24.1,41.6,41.3,67.6,36.8l0.7-0.1c15.9-0.7,33,7.4,45.5,21.7c12.6,14.3,18.5,32.2,15.9,48l-0.2,0.7
	c-7.9,25.5,5,58.3,28.1,71.7l0.6,0.4c12.7,9.8,20.5,27,20.9,46s-6.6,36.5-18.7,46.8l-0.6,0.4c-22.3,14.4-33.5,47.9-24.6,73l0.2,0.7
	c3.4,15.7-1.7,33.9-13.6,48.8c-11.9,14.8-28.4,23.7-44.4,23.8H411c-26.5-3.3-56.6,15-65.8,40l-0.3,0.7
	C339.2,498.7,328.5,507.6,315.3,512.8z"/>
<g>
	<path class="st1" d="M306.5,480.9c-3.3,1.3-6.8,2.3-10.5,3.1c-16.3,3.3-32.4-0.1-43-9l-0.5-0.4c-15.6-16.8-46.6-21.6-66.4-10.1
		l-0.6,0.3c-0.1,0.1-0.3,0.1-0.4,0.2c-13,5.1-29.3,3.4-43.7-4.6s-24.5-20.8-27-34.4l-0.1-0.6c-1.2-22.9-21.9-46.4-44.4-50.4
		l-0.6-0.2c-13.3-4.2-24.8-16-30.9-31.5s-5.6-32,1.3-44.1l0.4-0.5c13.8-18.2,13.1-49.6-1.6-67.2l-0.4-0.5
		c-7.5-11.8-8.7-28.2-3.4-44.1c5.4-15.8,16.3-28,29.3-32.8l0.6-0.2c22.3-5,41.9-29.6,41.9-52.5v-0.6C108.3,87,117.9,73.7,132,65
		c14.2-8.7,30.6-11.1,43.7-6.4l0.6,0.3c20.7,10.6,50.8,4.5,65.9-13.3l0.4-0.5c10.3-9.4,26.2-13.5,42.6-11s30.5,11.2,37.6,23.2
		l0.3,0.6c8.7,21,36.3,36.1,59,32.1l0.6-0.1c13.9-0.6,28.8,6.5,39.7,18.9c11,12.5,16.2,28.1,13.9,41.9l-0.2,0.6
		c-6.9,22.3,4.4,50.9,24.5,62.6l0.5,0.4c11.1,8.5,17.9,23.6,18.3,40.2s-5.7,31.9-16.3,40.9l-0.5,0.4c-19.4,12.6-29.3,41.8-21.5,63.7
		l0.2,0.6c3,13.7-1.5,29.6-11.8,42.6c-10.3,12.9-24.8,20.7-38.7,20.8h-0.6c-23.2-2.9-49.5,13.1-57.4,35l-0.3,0.6
		C327.4,468.6,318.1,476.4,306.5,480.9z"/>
</g>
<path d="M190.9,169.6l29.2-11.4l1.2,3.2l-29.2,11.4L190.9,169.6z"/>
<g>
	<path d="M155.8,291.9l-1.8-4.5c0.8,0.3,2.6,0.3,3.5,0c1.8-0.7,2.3-1.9,1.1-5l-11.1-28.2l7.5-3l11.4,28.9c1.8,4.7,0.5,9.3-4.7,11.3
		C159.2,292.5,157,292.3,155.8,291.9z"/>
	<path d="M165.3,263.3c-3.4-8.6,1.1-17.5,9.7-20.8c8.5-3.3,17.8,0.1,21.2,8.7c3.4,8.6-1.1,17.5-9.6,20.8
		C178,275.3,168.6,271.9,165.3,263.3z M188.2,254.3c-2.1-5.3-6.2-7.8-10.9-5.9c-4.7,1.8-6.1,6.4-4,11.8c2.1,5.3,6.3,7.7,11,5.9
		C188.9,264.2,190.3,259.7,188.2,254.3z"/>
	<path d="M195.4,235.3l7.5-3l11,27.9l-7.5,3L195.4,235.3z"/>
	<path d="M209,230l5.7-2.2l19,11.1l-6.3-16l6.7-2.6l11,27.9l-5.7,2.2l-19-11.1l6.3,16l-6.7,2.6L209,230z"/>
	<path d="M256.8,217.8l-9,3.5l-2.2-5.7l25.5-10l2.2,5.7l-9,3.5l8.7,22.2l-7.5,3L256.8,217.8z"/>
	<path d="M274.5,204.2l7.5-3l3.9,10l11-4.3l-3.9-10l7.5-3l11,27.9l-7.5,3l-4.5-11.5l-11,4.3l4.5,11.5l-7.5,3L274.5,204.2z"/>
	<path d="M306.7,191.6l19.4-7.6l2.2,5.7l-11.9,4.7l1.8,4.7l9.5-3.7l2.2,5.6l-9.5,3.7l2.4,6.2l11.9-4.7l2.2,5.7l-19.4,7.6
		L306.7,191.6z"/>
	<path d="M124.3,327.7l5.7-2.2l19,11.1l-6.3-16l6.7-2.6l11,27.9l-5.7,2.2l-19-11.1l6.3,16l-6.7,2.6L124.3,327.7z"/>
	<path d="M155.5,315.5l19.4-7.6l2.2,5.7l-11.9,4.7l1.8,4.7l9.5-3.7l2.2,5.6l-9.5,3.7l2.4,6.2l11.9-4.7l2.2,5.7l-19.4,7.6
		L155.5,315.5z"/>
	<path d="M177.4,306.9l7.4-2.9l10.2,12.7c0.5,0.7,2.1,3.2,2.1,3.2s-0.4-2.9-0.5-3.8l-1.5-16.1l5.7-2.2l10,12.8
		c0.6,0.7,2.2,3.2,2.2,3.2s-0.6-2.8-0.6-3.8l-1.1-16.3l7.2-2.8l1.5,31.6l-5.9,2.3L204,312.1c-0.6-0.7-1.7-2.3-1.7-2.5
		c0,0.2,0.3,2.1,0.4,3l1.1,16.1l-5.9,2.3L177.4,306.9z"/>
	<path d="M229,315.2l-0.5-6.1c2.8,0.9,6.6,1.7,10.3,0.3c2.3-0.9,3.7-2.5,2.9-4.4c-0.7-1.8-2.2-2.1-6.6-1.4c-7,1-10.5-1.5-12.1-5.7
		c-2-5.1,0.7-9.9,6.9-12.4c3.7-1.4,7.5-1.4,10.3-0.8l0.4,5.6c-2.6-0.5-6-0.4-8.7,0.6c-2,0.8-2.9,2.1-2.4,3.5
		c0.5,1.3,1.7,1.8,5.1,1.3c7.6-1.1,11.6,0.7,13.6,5.7c2.6,6.6-1.8,11.1-7.4,13.3C236.1,316.6,231.9,316.2,229,315.2z"/>
	<path d="M245.2,280.2l7.5-3l8.7,22.2l11.9-4.7l2.2,5.7l-19.4,7.6L245.2,280.2z"/>
	<path d="M268.1,271.2l19.4-7.6l2.2,5.7l-11.9,4.7l1.8,4.7l9.5-3.7l2.2,5.6l-9.5,3.7l2.4,6.2l11.9-4.7l2.2,5.7l-19.4,7.6
		L268.1,271.2z"/>
	<path d="M301.3,264.7l-9,3.5l-2.2-5.7l25.5-10l2.2,5.7l-9,3.5l8.7,22.2l-7.5,3L301.3,264.7z"/>
	<path d="M328.2,254.1l-9,3.5L317,252l25.5-10l2.2,5.7l-9,3.5l8.7,22.2l-7.5,3L328.2,254.1z"/>
	<path d="M346,240.6l19.4-7.6l2.2,5.7l-11.9,4.7l1.8,4.7l9.5-3.7l2.2,5.6l-9.5,3.7l2.4,6.2l11.9-4.7l2.2,5.7l-19.4,7.6L346,240.6z"
		/>
	<path d="M384.9,245.1l4.2,10.7l-7.5,3l-11-27.9l12.7-5c6.8-2.7,11.3,0.3,13.1,4.8c1.5,3.8,0.5,7.6-2.4,10l12.7,8.3l-8.1,3.2
		l-11.7-7.8L384.9,245.1z M386.2,239.1c2.9-1.1,3.7-2.9,2.7-5.3c-1-2.4-2.8-3.2-5.6-2.1l-3.3,1.3l2.9,7.4L386.2,239.1z"/>
</g>
</svg>
