<?xml version="1.0" encoding="utf-8"?>
<!-- Generator: Adobe Illustrator 23.0.1, SVG Export Plug-In . SVG Version: 6.00 Build 0)  -->
<svg version="1.1" id="Layer_1" xmlns="http://www.w3.org/2000/svg" xmlns:xlink="http://www.w3.org/1999/xlink" x="0px" y="0px"
	 viewBox="0 0 513.5 517.7" enable-background="new 0 0 513.5 517.7" xml:space="preserve">
<path fill="#7DFFC8" d="M315.3,512.8c-3.8,1.5-7.8,2.7-12,3.5c-18.6,3.7-37.1-0.1-49.3-10.3l-0.5-0.5
	c-17.9-19.3-53.4-24.7-76.1-11.6l-0.7,0.3c-0.2,0.1-0.3,0.1-0.5,0.2c-14.9,5.8-33.5,3.9-50.1-5.2c-16.5-9.1-28.1-23.9-30.9-39.4
	L95,449c-1.3-26.2-25.1-53.2-50.9-57.8l-0.7-0.2c-15.2-4.8-28.4-18.3-35.4-36c-6.9-17.7-6.4-36.6,1.5-50.5l0.4-0.6
	c15.8-20.9,15-56.8-1.9-77l-0.4-0.6c-8.6-13.5-10-32.4-3.8-50.5c6.1-18.1,18.6-32,33.6-37.5l0.7-0.2c25.5-5.8,48-33.9,48-60.2l0-0.7
	c2.1-15.8,13-31.1,29.2-41c16.3-10,35-12.7,50.1-7.3l0.7,0.3c23.7,12.1,58.2,5.2,75.5-15.3l0.5-0.5c11.8-10.7,30-15.4,48.8-12.6
	c18.8,2.8,34.9,12.8,43.1,26.6l0.3,0.7c10,24.1,41.6,41.3,67.6,36.8l0.7-0.1c15.9-0.7,33,7.4,45.5,21.7c12.6,14.3,18.5,32.2,15.9,48
	l-0.2,0.7c-7.9,25.5,5,58.3,28.1,71.7l0.6,0.4c12.7,9.8,20.5,27,20.9,46c0.4,19-6.6,36.5-18.7,46.8l-0.6,0.4
	c-22.3,14.4-33.5,47.9-24.6,73l0.2,0.7c3.4,15.7-1.7,33.9-13.6,48.8c-11.9,14.8-28.4,23.7-44.4,23.8l-0.7,0
	c-26.5-3.3-56.6,15-65.8,40l-0.3,0.7C339.2,498.7,328.5,507.6,315.3,512.8z"/>
<g>
	
		<path fill="none" stroke="#000000" stroke-width="5" stroke-linecap="round" stroke-miterlimit="10" stroke-dasharray="24.0319,12.016" d="
		M306.5,480.9c-3.3,1.3-6.8,2.3-10.5,3.1c-16.3,3.3-32.4-0.1-43-9l-0.5-0.4c-15.6-16.8-46.6-21.6-66.4-10.1l-0.6,0.3
		c-0.1,0.1-0.3,0.1-0.4,0.2c-13,5.1-29.3,3.4-43.7-4.6c-14.4-8-24.5-20.8-27-34.4l-0.1-0.6c-1.2-22.9-21.9-46.4-44.4-50.4l-0.6-0.2
		c-13.3-4.2-24.8-16-30.9-31.5c-6.1-15.5-5.6-32,1.3-44.1l0.4-0.5c13.8-18.2,13.1-49.6-1.6-67.2l-0.4-0.5
		c-7.5-11.8-8.7-28.2-3.4-44.1c5.4-15.8,16.3-28,29.3-32.8l0.6-0.2c22.3-5,41.9-29.6,41.9-52.5l0-0.6c1.8-13.8,11.4-27.1,25.5-35.8
		c14.2-8.7,30.6-11.1,43.7-6.4l0.6,0.3c20.7,10.6,50.8,4.5,65.9-13.3l0.4-0.5c10.3-9.4,26.2-13.5,42.6-11
		c16.4,2.5,30.5,11.2,37.6,23.2l0.3,0.6c8.7,21,36.3,36.1,59,32.1l0.6-0.1c13.9-0.6,28.8,6.5,39.7,18.9c11,12.5,16.2,28.1,13.9,41.9
		l-0.2,0.6c-6.9,22.3,4.4,50.9,24.5,62.6l0.5,0.4c11.1,8.5,17.9,23.6,18.3,40.2c0.4,16.6-5.7,31.9-16.3,40.9l-0.5,0.4
		c-19.4,12.6-29.3,41.8-21.5,63.7l0.2,0.6c3,13.7-1.5,29.6-11.8,42.6c-10.3,12.9-24.8,20.7-38.7,20.8l-0.6,0
		c-23.2-2.9-49.5,13.1-57.4,35l-0.3,0.6C327.4,468.6,318.1,476.4,306.5,480.9z"/>
</g>
<path d="M190.9,169.6l29.2-11.4l1.2,3.2l-29.2,11.4L190.9,169.6z"/>
<path d="M110.3,260.3c-3.4-8.7,1.2-16.7,9-19.8c3.7-1.4,7.6-1.8,10.6-1l2.4,6.2c-2.9-1-6.3-1.2-9.5,0.1c-4.5,1.8-6.9,6.1-4.8,11.5
	c2.1,5.4,6.7,7,11.3,5.2c3.2-1.3,5.6-3.7,7-6.4l2.4,6.2c-1.6,2.6-4.8,5-8.4,6.4C122.6,271.8,113.8,269,110.3,260.3z"/>
<path d="M133.9,235.5l7.3-2.9l8.4,21.5l11.5-4.5l2.1,5.5l-18.8,7.3L133.9,235.5z"/>
<path d="M156.1,226.8l7.3-2.9l10.6,27l-7.3,2.9L156.1,226.8z"/>
<path d="M173.2,235.7c-3.4-8.7,1.2-16.7,9-19.8c3.7-1.4,7.6-1.8,10.6-1l2.4,6.2c-2.9-1-6.3-1.2-9.5,0.1c-4.5,1.8-6.9,6.1-4.8,11.5
	c2.1,5.4,6.7,7,11.3,5.2c3.2-1.3,5.6-3.7,7-6.4l2.4,6.2c-1.6,2.6-4.8,5-8.4,6.4C185.5,247.2,176.6,244.5,173.2,235.7z"/>
<path d="M196.7,210.9l7.3-2.9l4.4,11.2l5.7-15.1l7.8-3l-6.3,16.2l18.7,10.1l-8.6,3.4l-13.4-7.4l-1.1,2.8l3.5,8.9l-7.3,2.9
	L196.7,210.9z"/>
<path d="M233.9,196.4l7.3-2.9l3.8,9.7l10.7-4.2l-3.8-9.7l7.3-2.9l10.6,27l-7.3,2.9l-4.4-11.2l-10.7,4.2l4.4,11.2l-7.3,2.9
	L233.9,196.4z"/>
<path d="M265,184.2l18.8-7.3l2.1,5.5l-11.5,4.5l1.8,4.5l9.2-3.6l2.1,5.4l-9.2,3.6l2.4,6l11.5-4.5l2.1,5.5l-18.8,7.3L265,184.2z"/>
<path d="M309.2,192l-4.2-4.3l-2.4,1l4.1,10.4l-7.3,2.9l-10.6-27l12.3-4.8c6.6-2.6,11,0.3,12.7,4.6c1.4,3.6,0.6,7.3-2.4,9.7l3.6,3.1
	c1.9,1.6,3.2,1.9,5,1.2c0.6-0.2,1-0.4,1.5-0.9l1.7,4.4c-1.1,0.9-2.5,1.7-3.7,2.2C316,195.7,312.7,195.6,309.2,192z M304,182.8
	c2.8-1.1,3.6-2.8,2.7-5.1c-0.9-2.3-2.7-3.1-5.5-2l-3.2,1.2l2.8,7.2L304,182.8z"/>
<path d="M316.3,164.1l18.8-7.3l2.1,5.5l-11.5,4.5l1.8,4.5l9.2-3.6l2.1,5.4l-9.2,3.6l2.4,6l11.5-4.5l2.1,5.5l-18.8,7.3L316.3,164.1z"
	/>
<path d="M90.4,314.8l18.2-7.1l2.1,5.5l-10.9,4.3l1.9,4.9l8.6-3.4l2.1,5.4l-8.6,3.4l4.4,11.2l-7.3,2.9L90.4,314.8z"/>
<path d="M115.9,320.4c-3.2-8.3,1.1-16.9,9.4-20.1c8.2-3.2,17.2,0.2,20.5,8.4c3.2,8.3-1.1,16.9-9.3,20.1
	C128.2,332.1,119.2,328.7,115.9,320.4z M138.1,311.8c-2-5.2-6-7.5-10.5-5.8c-4.5,1.8-5.9,6.2-3.9,11.4c2,5.2,6,7.5,10.6,5.7
	C138.8,321.3,140.1,316.9,138.1,311.8z"/>
<path d="M165.5,310.6l-4.2-4.3l-2.4,1l4.1,10.4l-7.3,2.9l-10.6-27l12.3-4.8c6.6-2.6,11,0.3,12.7,4.6c1.4,3.6,0.6,7.3-2.4,9.7
	l3.6,3.1c1.9,1.6,3.2,1.9,5,1.2c0.6-0.2,1-0.4,1.5-0.9l1.7,4.4c-1.1,0.9-2.5,1.7-3.7,2.2C172.3,314.3,169,314.1,165.5,310.6z
	 M160.3,301.3c2.8-1.1,3.6-2.8,2.7-5.1c-0.9-2.3-2.7-3.1-5.5-2l-3.2,1.2l2.8,7.2L160.3,301.3z"/>
<path d="M180.4,279.6l11.5-4.5c6.8-2.7,11.5,0.2,13.4,5.2c1.9,5,0.4,10.3-6.4,12.9l-4.2,1.7l3.5,8.9l-7.3,2.9L180.4,279.6z
	 M195.3,289.1c3.1-1.2,3.8-3.3,2.8-6s-3-3.7-6.1-2.5l-2.5,1l3.3,8.5L195.3,289.1z"/>
<path d="M225.7,287l-4.2-4.3l-2.4,1l4.1,10.4l-7.3,2.9l-10.6-27l12.3-4.8c6.6-2.6,11,0.3,12.7,4.6c1.4,3.6,0.6,7.3-2.4,9.7l3.6,3.1
	c1.9,1.6,3.2,1.9,5,1.2c0.6-0.2,1-0.4,1.5-0.9l1.7,4.4c-1.1,0.9-2.5,1.7-3.7,2.2C232.5,290.7,229.2,290.6,225.7,287z M220.5,277.8
	c2.8-1.1,3.6-2.8,2.7-5.1c-0.9-2.3-2.7-3.1-5.5-2l-3.2,1.2l2.8,7.2L220.5,277.8z"/>
<path d="M232.8,259.1l18.8-7.3l2.1,5.5l-11.5,4.5l1.8,4.5l9.2-3.6l2.1,5.4l-9.2,3.6l2.4,6l11.5-4.5l2.1,5.5l-18.8,7.3L232.8,259.1z"
	/>
<path d="M259.7,264.2c-3.2-8.3,1.1-16.9,9.4-20.1c8.2-3.2,17.2,0.2,20.5,8.4c3.2,8.3-1.1,16.9-9.3,20.1
	C272,275.8,262.9,272.5,259.7,264.2z M281.8,255.5c-2-5.2-6-7.5-10.5-5.8c-4.5,1.8-5.9,6.2-3.9,11.4c2,5.2,6,7.5,10.6,5.7
	C282.5,265.1,283.9,260.7,281.8,255.5z"/>
<path d="M309.3,254.3l-4.2-4.3l-2.4,1l4.1,10.4l-7.3,2.9l-10.6-27l12.3-4.8c6.6-2.6,11,0.3,12.7,4.6c1.4,3.6,0.6,7.3-2.4,9.7
	l3.6,3.1c1.9,1.6,3.2,1.9,5,1.2c0.6-0.2,1-0.4,1.5-0.9l1.7,4.4c-1.1,0.9-2.5,1.7-3.7,2.2C316.1,258,312.8,257.9,309.3,254.3z
	 M304,245.1c2.8-1.1,3.6-2.8,2.7-5.1c-0.9-2.3-2.7-3.1-5.5-2l-3.2,1.2l2.8,7.2L304,245.1z"/>
<path d="M316.3,226.4l10.5-4.1c11.1-4.4,18-0.1,21,7.4c2.9,7.4,0.7,15.3-10.4,19.6l-10.5,4.1L316.3,226.4z M334.7,243.9
	c6.1-2.4,7.9-5.9,5.7-11.3c-2.1-5.4-5.8-6.8-11.9-4.4l-2.7,1l6.2,15.8L334.7,243.9z"/>
<path d="M347.1,214.4l18.8-7.3l2.1,5.5l-11.5,4.5l1.8,4.5l9.2-3.6l2.1,5.4l-9.2,3.6l2.4,6l11.5-4.5l2.1,5.5l-18.8,7.3L347.1,214.4z"
	/>
<path d="M391.3,222.2l-4.2-4.3l-2.4,1l4.1,10.4l-7.3,2.9l-10.6-27l12.3-4.8c6.6-2.6,11,0.3,12.7,4.6c1.4,3.6,0.6,7.3-2.4,9.7
	l3.6,3.1c1.9,1.6,3.2,1.9,5,1.2c0.6-0.2,1-0.4,1.5-0.9l1.7,4.4c-1.1,0.9-2.5,1.7-3.7,2.2C398.1,225.9,394.8,225.8,391.3,222.2z
	 M386,213c2.8-1.1,3.6-2.8,2.7-5.1c-0.9-2.3-2.7-3.1-5.5-2l-3.2,1.2l2.8,7.2L386,213z"/>
<path d="M216.5,327.8l7.3-2.9l10.6,27l-7.3,2.9L216.5,327.8z"/>
<path d="M229.7,322.6l5.5-2.2l18.3,10.7l-6.1-15.5l6.4-2.5l10.6,27l-5.5,2.2l-18.3-10.7l6.1,15.5l-6.4,2.5L229.7,322.6z"/>
<path d="M259.8,310.9l18.2-7.1l2.1,5.5l-10.9,4.3l1.9,4.9l8.6-3.4l2.1,5.4l-8.6,3.4l4.4,11.2l-7.3,2.9L259.8,310.9z"/>
<path d="M285.3,316.4c-3.2-8.3,1.1-16.9,9.4-20.1c8.2-3.2,17.2,0.2,20.5,8.4c3.2,8.3-1.1,16.9-9.3,20.1
	C297.6,328.1,288.6,324.7,285.3,316.4z M307.5,307.8c-2-5.2-6-7.5-10.5-5.8c-4.5,1.8-5.9,6.2-3.9,11.4c2,5.2,6,7.5,10.6,5.7
	C308.2,317.4,309.5,312.9,307.5,307.8z"/>
</svg>
